<?xml version="1.0" encoding="utf-8"?>
<!-- Generator: Adobe Illustrator 22.1.0, SVG Export Plug-In . SVG Version: 6.00 Build 0)  -->
<svg version="1.1" id="Layer_1" xmlns="http://www.w3.org/2000/svg" xmlns:xlink="http://www.w3.org/1999/xlink" x="0px" y="0px"
	 viewBox="0 0 510 210" style="enable-background:new 0 0 510 210;" xml:space="preserve">
<g>
	<g>
		<path d="M1,69c1.6-7.4,3.1-14.8,4.9-22.2C12.1,21.6,43.1,1.1,66.8,1.9c31.5,1,63,0.2,94.4,0.4c62,0.4,123.9,1,185.9,1.5
			c0.7,0,1.3,0.2,2.8,0.3c0,7.5,0,15.1,0,22.7c0,9.9,0,9.9-10.1,9.9c-16.7,0.1-33.3,0.2-50,0.3c-6,0-7.2,1.1-7.3,7.3
			c-0.2,9.5-0.1,19-0.1,28.5c0.1,17.2,0.4,34.3,0.4,51.5c0,5.1,2,6.7,6.9,6.6c7.7-0.2,15.3-0.1,23,0.2c4.3,0.2,7.3-1.7,9.6-5.1
			c9.6-14.7,19.3-29.4,28.8-44.3C363.6,62,375.8,42,388.4,22.2C395.6,10.9,405.3,3,419.6,3c10,0,17,6.1,22.2,13.5
			c7.4,10.4,14,21.4,20.3,32.6c14.3,25.5,28,51.4,42.4,76.8c4.9,8.7,6.1,17.7,5.8,27.3c-0.1,3.3,0.5,6.6,0.8,9.9c0,14.3,0,28.7,0,43
			c-3.6,0.3-7.3,0.7-10.9,0.8c-29.8,0.7-59.5,1.5-89.3,2c-28,0.5-55.9,0.8-83.9,0.9c-40.3,0.2-80.5,0-120.8,0.1
			c-37,0.1-73.9,0.2-110.9,0.4c-1.8,0-3.5,0.5-5.3,0.7c-28,0-56,0-84,0c-0.6-2.4-1.6-4.7-1.7-7.1c-0.1-19.6-0.1-39.3-0.1-58.9
			c0-4.4,0-8.8,0-13.7c12,0,23.7,0,36.7,0c-14.7-9-27.4-18-33.7-33.2C5,92.8,3.1,87.4,1,82C1,77.7,1,73.3,1,69z M124,7.2
			c0,0,0-0.1,0-0.1c-11.7,0-23.3-0.1-35,0C78.5,7.2,68,6.8,57.6,8.1c-14.3,1.8-25.4,10-34.8,20.7C6.3,47.6,2.5,69.2,9.9,92.5
			c4.9,15.5,17.2,25.1,31.1,32.2c6.3,3.2,13.5,4.6,20.2,7c1.3,0.5,2.3,1.8,3.4,2.7c-1.3,0.5-2.6,1.3-3.9,1.3
			c-15.7,0-31.3,0.1-47-0.3c-4.2-0.1-5.2,1-5.1,4.8c0.2,9.8,0.2,19.6,0.2,29.4c0,11.1-0.1,22.3-0.1,33.4c0,2.5,0.9,3.3,3.6,3.3
			c40.2-0.3,80.3-0.4,120.5-0.6c36.6-0.2,73.3-0.5,109.9-0.9c60.8-0.6,121.5-1.3,182.3-1.8c23.7-0.2,47.3,0,71,0
			c9,0,9.9-0.7,10.1-9.9c0.2-11.8,0.4-23.6,0.3-35.5c0-9.1,0-18-5-26.5c-9.2-15.6-17.3-31.8-26-47.6C466,66.8,456.5,50,446.9,33.4
			c-2.6-4.6-5.5-9.2-8.9-13.2c-9.5-11.3-22.1-14.7-31.6-7.8c-5.7,4.1-10.9,9.5-14.7,15.4c-13.4,21-26,42.5-39.1,63.6
			c-8.6,13.8-17.5,27.5-26.6,40.9c-1.4,2-4.8,3.7-7.3,3.8c-11.1,0.6-22.3,0.7-33.4,0.9c-6.3,0.1-7.9-1.2-8.7-7.4
			c-0.3-2.5-0.3-5-0.4-7.5c0-10.5,0-21-0.1-31.5c-0.1-18.3-0.2-36.7-0.4-55c0-2.9,0.3-4.5,4-4.5c20.3,0.1,40.6,0,61-0.3
			c1.4,0,3.9-2.1,4.1-3.5c0.6-4.6,0.5-9.3,0.5-13.9c0-2.8-1.4-4.2-4.3-4.3c-6.7-0.2-13.3-0.7-19.9-0.8c-45-0.4-90-0.8-134.9-1
			C165.3,7,144.7,7.2,124,7.2z"/>
		<path d="M250.6,136.3c-8.2,0-16.1,0-24.1,0c-15,0-30-0.3-45-0.1c-4.4,0.1-6.1-1.6-6.2-5.6c-0.1-7.3-0.3-14.6-0.3-22
			c0-15.3-0.1-30.7,0.1-46c0.1-4-1.4-5.4-5.2-5.4c-23.8,0-47.6,0-71.4,0c-3.8,0-5.9,1.6-5.7,5.8c0.2,4,0,8-0.3,11.9
			c-0.3,4,1.4,5.3,5.2,5.3c14.3-0.1,28.7,0,43,0c6.6,0,7.2,0.5,7.1,7.1c-0.1,5.8-0.6,11.6-0.9,17.4c-0.2,3.7-2.2,5.2-5.9,5.2
			c-25.6-0.4-51.3-0.3-76.9-1.1C48.5,108.3,33,90.8,31.9,75.2C29.8,47,54.7,27.5,77.7,28.5c19.1,0.9,38.3-0.2,57.4-0.2
			c36.5,0.1,72.9,0.4,109.4,0.6c4.7,0,6,3.2,6.5,6.7c0.5,3.4,0.1,7,0.1,10.5c-0.1,28.3-0.2,56.6-0.3,85
			C250.8,132.5,250.7,134,250.6,136.3z M86.8,52.1c4.5-0.2,8.6-0.7,12.8-0.7c25-0.1,50-0.1,75-0.1c8.4,0,8.3,0,8.3,8.7
			c0.1,19.5-0.1,39,0.4,58.5c0.3,10.7,0.8,11.2,11.4,11.6c14.5,0.6,28.9,0.4,43.4,0.6c4.5,0,6-2.2,5.9-6.6
			c-0.4-27.3-0.6-54.6-0.8-81.9c-0.1-6.7-0.4-7.2-7.1-7.1c-18,0.2-35.9,0.8-53.9,0.8c-29,0.2-58,0-87,0.1c-7.5,0-15,0.1-22.4,0.8
			c-21.2,2-35.1,18.7-32,38.3c2.7,16.9,17.1,29.7,32.9,28.7c5-0.3,10-0.5,15-0.5c15.2,0,30.3,0.2,45.5,0.1c6.8,0,7.6-1,7.6-7.4
			c0-0.8,0-1.7,0-2.5c-0.1-6.5-1.2-7.5-7.6-7.5c-14,0-28-0.1-42,0.1c-3.7,0.1-5.4-1.3-5.5-4.6C86.7,71.9,86.8,62.3,86.8,52.1z"/>
		<path d="M252.1,186.5c0-13.7,0-25.8,0-38.3c3.3,0,6.3,0,9.8,0c0,7.5-0.1,14.8,0,22.1c0,5,0.3,10,0.4,15c0.1,4.3-1.2,8.2-5.1,10.1
			c-4.4,2.1-8.6,0.4-11.7-3.1c-5.4-6.1-10.6-12.3-15.8-18.6c-2.5-3.1-4.6-6.5-7.2-9.5c-0.9-1.1-3-2.4-3.9-2c-1.2,0.6-2.5,2.5-2.6,4
			c-0.2,7.5,0,15,0.1,22.5c0,1.6,0,3.2,0,5.5c-6.1,0-11.7,0.2-17.3-0.1c-1.4-0.1-3.3-1.7-4-3.1c-2.1-4.1-5.2-5.5-9.7-5.4
			c-7,0.3-13.9,0.1-21,0.1c2-9.8,2.7-10.3,11.3-10.3c0.5,0,1,0.1,1.5,0c2.7-0.4,5.3-0.9,8-1.4c-1.2-2.6-2.2-5.3-3.6-7.8
			c-1.1-1.8-2.8-3.3-4.1-5c-3.1-4.2-4-4.2-7.1,0.2c-7.7,11-15.3,22.1-23,33.2c-0.4,0.5-0.6,1.2-1.1,1.6c-2.1,1.7-16.5,0.1-18.2-2.1
			c-3.2-4.2-6.7-8.3-9.5-12.8c-2.3-3.7-5.1-4.8-9.1-4.5c-2.6,0.2-5.3,0-8.6,0c-0.2-2.4-0.3-4.6-0.6-7.5c8.2,0,16,0.1,23.7,0
			c5.8-0.1,9.1-4.5,6.8-9.2c-1-2-3.8-4.1-5.9-4.2c-8.5-0.5-17-0.2-25.5-0.2c-3.5,0-4.5,1.9-4.4,5.1c0.1,10.9,0,21.9,0,33.3
			c-2.9,0.2-6,0.3-10.3,0.5c0-8.8-0.2-17.4,0-26c0.3-12.2,0.5-12.1-11.4-12.2c-16.8-0.1-14-0.5-14.2,13.7c-0.1,6.7-0.4,13.3-0.1,20
			c0.2,4.6-1.2,6.5-5.8,5.8c-1.4-0.2-2.9-0.2-5-0.3c0-13.1,0-26,0-39.3c-6.8,0-13.1,0-20,0c-0.2-3.2-0.3-5.9-0.4-9.2
			c2.2-0.2,4.1-0.5,6.1-0.5c27.8,0.2,55.6,0.4,83.5,0.7c4.2,0,8.3,0.5,12.5,0.8c4.4,0.4,7.4,2.5,9.2,6.6c3.9,8.7,0.8,18.7-7.4,22.8
			c-2.8,1.4-2.9,3-1.1,5c7.1,7.7,11.2,8,16.2-0.4c6.1-10.3,12.7-20.3,19.2-30.3c1-1.5,2.2-2.9,3.5-4.2c2.8-3,6.1-3.2,8.6,0
			c5.4,7.1,10.5,14.5,15.6,21.9c3.1,4.5,5.9,9.2,9.1,13.7c0.6,0.9,2.1,1.3,3.2,1.9c0.5-1.1,1.3-2.2,1.3-3.4c0.1-9,0.2-18,0.1-26.9
			c-0.1-4.7,2.7-7.3,6.4-8.4c3.7-1.1,7.4-0.4,10.1,3.4c7.4,10.2,15.1,20.3,22.7,30.3C247.7,181.9,249.4,183.6,252.1,186.5z"/>
		<path d="M428,165.9c-3.6,7.6-7.3,15.1-10.9,22.7c-1.2,2.5-1.9,4.8-5.5,4.6c-3.6-0.3-7.6,0.5-9.1-4.1c-1.7-5.2-5.2-6.6-10.4-6.3
			c-6.3,0.4-12.6,0.1-18.8,0.1c0.9-6.7,2.4-8,9.6-8c9.5,0,9.5,0,5.3-8.1c-1.5-2.8-2.9-5.6-4.6-8.3c-2.5-3.9-4-3.8-6.3,0.3
			c-5.5,9.7-11.4,19.2-16.3,29.2c-2.8,5.6-6.5,7.3-12.8,5.7c3.9-7,7.7-13.9,11.6-20.7c4.4-7.8,8.7-15.7,13.5-23.3
			c3.1-4.8,10.6-4.5,13.7,0.2c6.4,9.5,12.6,19.1,18.9,28.7c0.8,1.2,1.6,2.3,3.4,4.7c6.2-12.9,11.9-24.7,18.2-37.6
			c2.1,3.3,3.5,5.4,4.7,7.6c3.7,7,7.2,14.2,11.1,21.2c1.1,2,3.3,3.5,5,5.2c1.4-1.8,3-3.4,4.1-5.4c4.5-8.3,8.8-16.8,13.4-25.1
			c2.4-4.4,6.3-4.8,7.9-0.6c5,13.7,9.5,27.5,14.2,41.4c-7.9,1.8-8.3,1.5-10.3-4.9c-1.7-5.2-3.4-10.4-5.2-15.6
			c-0.5-1.4-1.8-2.5-2.7-3.7c-1.2,1.1-2.7,1.9-3.4,3.2c-3.9,6.8-7.4,13.8-11.3,20.5c-3.8,6.6-7.2,6.6-11.3,0.1
			c-3.8-6.1-7-12.4-10.5-18.7c-1-1.7-2-3.3-3.1-5C429.1,166,428.5,166,428,165.9z"/>
		<path d="M450.3,85.1c-13.3,0-25.6-0.1-37.9,0.1c-2.1,0-5.1,0.8-6.1,2.2c-4.7,6.8-8.8,13.9-13.6,21.8c8.6,0,16,0,23.4,0
			c16,0,32,0.1,47.9-0.1c3.1,0,4.9,0.8,6.2,3.7c3.5,7.3,7.2,14.4,11.2,22.4c-2.6,0-4.4,0-6.2,0c-26.3,0-52.6,0-78.9,0
			c-8.1,0-16.3,0.5-24.4,0.5c-8.9,0-11-3.8-6.4-11.5c11-18.6,22.1-37,33.1-55.6c5.8-9.7,11.4-19.5,17.2-29.2
			c2.3-3.8,6.7-3.5,9.5,1.1c6.1,10.3,11.8,20.8,17.6,31.2C445.3,75.9,447.4,79.9,450.3,85.1z M385.8,111.8c2.4-4.1,4.1-7,5.9-9.9
			c3.2-5.1,6.7-9.9,9.5-15.1c2.2-4.2,4.9-6.1,9.8-5.8c7.6,0.4,15.3,0.2,23-0.1c2.7-0.1,7.4,0,5-4.7c-5.4-10.7-11.4-21-17.4-31.4
			c-1.4-2.4-3.1-3.2-5,0.3c-5.1,9.3-10.4,18.5-15.9,27.7c-10.6,17.6-21.4,35.2-32,52.8c-3.1,5.1-2.7,5.7,3.2,5.7
			c32,0.3,63.9,0.5,95.9,0.9c3.8,0,4.9-1.6,3.4-5c-1.6-3.6-2.9-7.6-5.1-10.8c-1.4-2-4.2-4.2-6.4-4.3c-13.6-0.4-27.3-0.2-40.9-0.2
			C408.3,111.8,397.8,111.8,385.8,111.8z"/>
		<path d="M323.6,147.5c0.3,0.7,0.6,1.2,0.6,1.6c1,8.7,1,8.6-7.8,8.4c-9.7-0.2-19.3,0-29,0c-3.8,0-5.9,1.2-5.8,5.5
			c0.1,4.4,2.3,5.1,6,5c8.2-0.2,16.3,0.3,24.5,0c10.2-0.4,14.3,4.9,14.8,12.3c0.5,8.6-5.7,14.5-14.7,14.6c-11.7,0.1-23.3,0.1-35,0.1
			c-7.7,0-7.8-0.3-6.5-8.9c1.7-0.1,3.5-0.2,5.3-0.2c10.3,0,20.6,0,31,0c2.1,0,4.3-0.2,6.4-0.7c3.9-0.9,4.1-4.3,3.4-7.2
			c-0.3-1.4-2.8-3.1-4.4-3.1c-8.8-0.4-17.6-0.3-26.5-0.3c-11.5,0-17.1-6.8-14.9-18.1c0.9-4.7,6.6-8.5,13.7-8.7
			c10.3-0.2,20.6-0.2,31-0.3C318.4,147.5,321,147.5,323.6,147.5z"/>
	</g>
</g>
</svg>
