<?xml version="1.0" encoding="utf-8"?>
<!-- Generator: Adobe Illustrator 22.1.0, SVG Export Plug-In . SVG Version: 6.00 Build 0)  -->
<svg version="1.1" id="Layer_1" xmlns="http://www.w3.org/2000/svg" xmlns:xlink="http://www.w3.org/1999/xlink" x="0px" y="0px"
	 viewBox="0 0 2733 246" style="enable-background:new 0 0 2733 246;" xml:space="preserve">
<g>
	<g>
		<path d="M534,1c8.6,0.4,17.2,0.7,25.7,1.3c32.2,2.1,64.4,4.1,96.6,6.6c25.5,2,51,4.6,76.5,7.2c4.9,0.5,9.8,1.9,14.4,3.7
			c5.4,2.1,6.6,5.9,4.8,11.3c-0.3,0.9-0.6,2-1.2,2.7c-9.8,12.2-19.4,24.5-29.6,36.3c-4.5,5.1-11.3,4-17.5,3.6
			c-22.9-1.6-45.8-3.4-68.7-4.7c-26.9-1.5-53.8-3.1-80.8-3.8c-33.6-0.8-67.3-1.3-100.9-0.9c-29.6,0.4-59.2,2.1-88.8,3.7
			c-14.8,0.8-29.5,2.4-44.2,4c-3.5,0.4-7.3,1.6-10.2,3.5c-2.4,1.5-5.3,4.7-5.1,7c0.1,2,3.9,4.8,6.5,5.5c5.3,1.3,10.8,1.7,16.3,1.9
			c42.6,1.7,85.1,3.3,127.7,4.9c19.3,0.7,38.6,0.9,57.9,2.3c36.7,2.5,73.3,6.9,107.6,21.2c10,4.2,19.6,10,28.1,16.8
			c15.3,12.3,17.2,29.9,6.2,46.3c-10.1,15-24.4,24.8-40.3,32.5c-23.1,11.2-47.8,16.9-73,21.1c-40,6.6-80.3,9.2-120.7,10.3
			c-13.8,0.4-27.6,0.7-41.4,1c-1.3,0-2.5,0.5-3.8,0.7c-34.7,0-69.3,0-104,0c-1.4-0.2-2.9-0.7-4.3-0.7c-40.7-1.8-81.4-2.6-122-5.5
			c-42.6-3-85-7.7-127.5-12.1C12.3,228.1,6.7,225,1,223c0-1.7,0-3.3,0-5c10.9-13.8,21.8-27.6,32.7-41.4c3.8-4.8,9-6.6,15-6.3
			c9.5,0.5,18.9,1.1,28.4,1.7c29.7,1.8,59.4,3.8,89.2,5.2c34.7,1.7,69.5,3.7,104.2,4.3c31.9,0.5,63.9-0.4,95.8-1.4
			c28.3-0.9,56.5-2.5,84.7-4.2c5.2-0.3,10.6-2.5,15.4-5c4.5-2.4,4.3-7.2-0.3-9.4c-4.7-2.2-10-4.1-15.1-4.4
			c-17.8-1-35.6-1.2-53.4-1.9c-24.8-1-49.6-1.9-74.3-3.5c-22.7-1.5-45.5-3.4-68.1-5.8c-22.8-2.5-45.6-5.2-68.2-9.1
			c-18.8-3.3-36.6-9.9-51.2-23c-12.4-11.1-16-25.5-10.5-41.2c3.8-10.7,11.2-18.4,20.3-24.6c18.8-12.7,40.2-19,61.9-23.9
			c35.2-8,71-12.6,107-15.1c41-2.8,82-4.7,123.1-7c4.4-0.2,8.8-0.7,13.2-1C478.7,1,506.3,1,534,1z"/>
		<path d="M935.2,173c2.6,0,4.6,0,6.6,0c91.3,0,182.6,0,274,0c3.5,0,7,0,10.4,0.6c7.8,1.3,8.8,4,3.9,10.2
			c-7.1,8.8-14.3,17.6-21.5,26.3c-3.7,4.5-7.7,8.8-11.1,13.5c-5,7-11.7,9.3-19.9,9.2c-8.3-0.2-16.7,0-25,0
			c-118.8,0-237.6,0-356.4-0.1c-4.1,0-8.3-0.5-12.3-1.4c-4.8-1.1-7.9-4.5-7-9.4c1-5.5,2.4-11.1,4.9-16
			c20.5-39.3,52.6-64.4,94.9-76.9c26.1-7.7,52.7-12.6,79.9-13.9c35.7-1.7,71.5-2.9,107.2-4.3c21.8-0.9,43.6-1.5,65.3-2.9
			c9.4-0.6,18.7-2.8,28-4.4c1.3-0.2,2.7-0.6,3.7-1.3c1.5-1.2,3.8-2.8,3.8-4.1c-0.1-1.7-1.9-4.3-3.5-4.8c-6.1-2.1-12.3-4-18.7-5.1
			c-34.4-5.9-69.2-7.2-104-5.2c-28.7,1.7-57.5,3.3-86.1,6.4c-18.9,2-37.6,6.6-56.3,10.1c-1,0.2-2,0.7-2.9,0.6
			c-2.8-0.2-5.6-0.5-8.4-0.8c0.9-2.7,1.2-5.9,2.7-8.1c7.8-11,15.9-21.7,23.8-32.7c5-7,12.8-7,20.1-8.2
			c45.5-7.4,91.3-11.9,137.5-13.5c41.3-1.5,82.6-0.5,123.7,3.6c23.2,2.3,46.2,5.5,68.5,12.9c12.3,4.1,23.7,9.8,32.6,19.6
			c10.5,11.6,10.9,25.5,0.8,37.5c-10.5,12.5-24.8,18.7-39.7,23.8c-22.1,7.6-45,11.4-68.2,14.1c-48.4,5.6-97,5.7-145.6,6.1
			c-24.8,0.2-49.6,1-74.4,2C954,156.5,941.4,163.6,935.2,173z"/>
		<path d="M2568.2,40.3c42,0,84,0,126,0c8.3,0,16.3,1.3,23.4,5.9c17.9,11.6,21.2,39.4,6.6,57c-14,16.9-27.9,34-42.4,50.5
			c-11.5,13.1-22.8,26.6-35.8,38.2c-23.1,20.6-51.1,31.7-81.5,35.9c-20.9,2.9-42,4.6-63.1,4.8c-68.2,0.6-136.3,0.2-204.5,0.2
			c-13.8,0-27.2-2.4-39.2-9.8c-15.8-9.7-25-23.3-22.8-42.7c1.1-9.9,5.4-18.6,11.6-26.1c21.3-25.6,42.6-51.2,64.4-76.4
			c16.1-18.6,37.5-28,61.3-31.6c19.4-2.9,39-5,58.5-5.3c45.8-0.8,91.6-0.2,137.4-0.2C2568.2,40.6,2568.2,40.4,2568.2,40.3z
			 M2520.5,83.7c0-0.3,0-0.7,0-1c-27.3,1.1-54.6,1.7-81.8,3.5c-14.8,1-28,7-37.9,18.7c-10,11.8-20.2,23.5-30.1,35.4
			c-3.5,4.2-7.1,8.5-9.6,13.3c-5.2,9.8-2.4,19.1,6.9,25c7.1,4.5,15,6.3,23.3,6.3c26.8,0.1,53.7,0.2,80.5-0.1
			c14.1-0.2,28.3-0.6,42.4-2c20.1-2,38.2-9.4,51.8-24.9c11.4-13,22.2-26.6,33.3-39.9c6-7.3,7-15.4,3.2-23.8
			c-3.8-8.3-11.2-10.6-19.9-10.5C2561.8,83.8,2541.1,83.7,2520.5,83.7z"/>
		<path d="M2091.6,40.3c42.2,0,84.3,0,126.5,0c9.1,0,17.9,1.7,25.3,7.5c14.9,11.6,18.8,37,6.4,52.3c-21.9,27.2-44.2,54.2-67.7,80.1
			c-25,27.5-57.5,42.2-93.9,47.5c-20,2.9-40.4,4.6-60.6,4.7c-69.2,0.6-138.3,0.2-207.5,0.2c-13.8,0-27.2-2.5-39.1-9.9
			c-14.7-9.1-23.9-21.7-22.9-39.8c0.7-12.5,6.7-22.8,14.6-32.2c16.9-20,33.8-39.9,50.6-60c9.7-11.7,19.6-23.1,33-30.8
			c16.1-9.3,33.8-14.3,52.1-15.8c26.2-2.1,52.5-3.3,78.7-3.8C2021.9,39.8,2056.8,40.3,2091.6,40.3z M2044.4,83.7c0-0.2,0-0.4,0-0.6
			c-24.8,0.6-49.6,0.8-74.4,2c-20.1,1-37.5,8.1-50,25c-4.8,6.4-10.4,12.1-15.6,18.2c-6.2,7.4-12.9,14.5-18.3,22.4
			c-7.8,11.5-4.8,23.1,7.8,29c6.3,3,13.6,4.6,20.6,4.9c14.1,0.7,28.3,0.4,42.5,0.2c26.8-0.5,53.6-0.5,80.4-2.2
			c21.5-1.4,40.1-10.4,54.3-27.1c10.4-12.2,20.6-24.5,31.1-36.5c6.4-7.3,8-15.2,4.1-24c-3.9-8.6-11.3-11.5-20.4-11.5
			C2085.7,83.8,2065.1,83.7,2044.4,83.7z"/>
		<path d="M1612,40.3c42.2,0,84.3,0,126.5,0c9.7,0,18.9,1.9,26.6,8.2c14.5,11.8,17.4,36.6,5.2,51.5c-22.1,27.1-44.2,54.2-67.6,80.2
			c-23.4,26-53.8,40-87.8,46.8c-21,4.2-42.2,5.6-63.5,5.6c-70,0.2-140,0.1-210,0.1c-14.7,0-28.7-3.1-41.1-11.7
			c-20.3-14.1-26.2-37.1-13.3-58.1c7.4-12,17-22.5,26-33.4c13.7-16.6,27.7-32.8,41.4-49.4c16.2-19.6,37.5-30.3,62.1-33.9
			c19.9-2.9,40-4.9,60-5.3c45.1-0.8,90.3-0.2,135.4-0.2C1612,40.6,1612,40.4,1612,40.3z M1565,83.7c-4.2,0-8.3-0.1-12.5,0
			c-23.3,0.7-46.6,0.9-69.8,2.5c-14.7,1-27.5,7.2-37.3,18.9c-10.5,12.5-21.2,24.8-31.7,37.3c-3.2,3.8-6.4,7.8-8.6,12.1
			c-4.9,9.5-2.2,18.4,6.7,24.2c6.9,4.5,14.7,6.2,22.8,6.3c19,0.1,38,0.3,57,0c22.1-0.4,44.3-0.4,66.3-2.1c20.7-1.6,38.9-9.9,52.8-26
			c11-12.7,21.8-25.6,32.8-38.3c6.3-7.3,7.6-15.4,3.8-24.1c-3.8-8.4-11.1-10.7-19.7-10.7C1606.7,83.8,1585.8,83.7,1565,83.7z"/>
	</g>
</g>
</svg>
