<svg xmlns="http://www.w3.org/2000/svg" viewBox="0 0 502.59 160.83"><defs><style>.cls-1{fill:#0e0e0e;}.cls-2{fill:#070707;}.cls-3{fill:#383838;}.cls-4{fill:#292929;}.cls-5{fill:#828282;}.cls-6{fill:#b0b0b0;}.cls-7{fill:#010101;}.cls-8{fill:#090909;}.cls-9{fill:#0f0f0f;}.cls-10{fill:#1c1c1c;}.cls-11{fill:#161616;}.cls-12{fill:#111;}.cls-13{fill:#212121;}.cls-14{fill:#232323;}.cls-15{fill:#a8a5a1;}.cls-16{fill:#908f8f;}.cls-17{fill:#b43e27;}.cls-18{fill:#221006;}.cls-19{fill:#250602;}.cls-20{fill:#150b01;}.cls-21{fill:#220402;}.cls-22{fill:#9d9b94;}.cls-23{fill:#e06e19;}.cls-24{fill:#eb7720;}.cls-25{fill:#535353;}.cls-26{fill:#83280f;}.cls-27{fill:#6d6b6a;}.cls-28{fill:#0a0a0a;}</style></defs><title>Asset 2</title><g id="Layer_2" data-name="Layer 2"><g id="Layer_1-2" data-name="Layer 1"><path class="cls-1" d="M.37,136.14a29.17,29.17,0,0,0,.92-3.38A71.72,71.72,0,0,1,6.4,114.3c.86.19,2,.11,2.52.64a3.86,3.86,0,0,0,4.2,1c-1.28,2.29-2.6,4.56-3.85,6.86-2.27,4.21-4.58,8.41-6.72,12.68-1.22,2.43-1.38,4.23-1,5.71l.56-1.1c2.8-5.51,5.58-11,8.4-16.54.75-1.45,1.5-2.9,3.37-3.28a30.57,30.57,0,0,0,4.71-1.26,11.91,11.91,0,0,0,6.6-5.25,31.85,31.85,0,0,1,5.57-7c1.29-1.3,2.43-2.74,3.62-4.13,1.74-2,3.3-4.22,5.22-6C43.7,92.73,48,89,52.18,85.24A52,52,0,0,1,56.41,82c1-.68,1.75-.35,2.12.75.18.53.3,1.07.46,1.61a1.53,1.53,0,0,0,2,1.13c1-.21,2-.26,3.06-.38-4.24,3.2-7.47,7.47-11.62,10.8-3.23,2.6-5.7,6.13-8.73,9a39.25,39.25,0,0,0-6.89,8.69c-.22.38-.06,1-.07,1.48l-2.37,1.54a2.78,2.78,0,0,0,2.61,1c4.16,0,8.31,0,12.47,0,2.74,0,5.49.16,8-1.14,1.07,0,2.14-.06,3.21,0a3,3,0,0,0,2.5-.75,2.36,2.36,0,0,1-.8,2.87,7.32,7.32,0,0,0-1.07,1.7c-2.83.08-5.66.22-8.49.22-2.38,0-4.78-.08-7.16-.23-7.36-.47-14.61.67-21.88,1.48a2.11,2.11,0,0,0-2,1.51c-.26.93-.86,1-1.69,1.14a12.57,12.57,0,0,0-3.45,1.07,12.36,12.36,0,0,0-2.07,1.79A35.73,35.73,0,0,0,4.54,140.14c-1.08,2.42-2.16,4.9-1.74,7.68a12.84,12.84,0,0,1,.42,2.33,5.13,5.13,0,0,0,2.48,4.43,13.72,13.72,0,0,0,9.35,2.68c2.06.08,4.13.18,6.2.23,3.87.1,7.73.22,11.6.23,12.62,0,25.24,0,37.87,0h36.72c8.39-.07,16.77-.18,25.16-.22,18.47-.1,36.94-.25,55.4-.23q62.75,0,125.47.22h24.36c.4,0,.79,0,1.19,0q5,.09,10.05.15c.1,0,.19-.12.29-.19,2.51.08,5,.23,7.52.22,3.09,0,6.18-.22,9.27-.2q10.43,0,20.84.24c3.66.07,7.32.29,11,.45,5.45.24,10.9.53,16.35.72,4.34.14,8.69.14,13,.25,5.34.14,10.67.34,16,.47,5,.12,10,.17,15,.25v.92l-1.68,0-50.64,0H364.48l-1.56,0-80.61,0H216a9.57,9.57,0,0,0-1.49.22H197a6.68,6.68,0,0,0-1.23-.24q-16.65,0-33.3,0a6.68,6.68,0,0,0-1.23.24H141.52a6.68,6.68,0,0,0-1.23-.24q-68.37,0-136.74,0a6.68,6.68,0,0,0-1.23.24H1.84a26.75,26.75,0,0,0-.88-5,12.36,12.36,0,0,1-.57-4.53C.37,146.41.38,141.28.37,136.14Z" transform="translate(-0.37 -0.27)"/><path class="cls-2" d="M502.54,150.56c0,1.43,0,2.87-.07,4.3l-.49.95c-.14.74-.26,1.48-.43,2.21-.23,1-.5,2.06-.75,3.08h-8.88c0-.07,0-.14,0-.21.54-.35,1-.76,1.61-1.06a12.74,12.74,0,0,0,2.15-1,9.05,9.05,0,0,0,3.36-8.56,31.89,31.89,0,0,0-4-11.8c-2.22-4-4.6-7.92-7-11.82a4.58,4.58,0,0,0-2.1-1.74,11.62,11.62,0,0,0-3.39-.55q-6.86-.42-13.7-.73c-1.73-.08-2.6-.84-2.53-2.6a22.68,22.68,0,0,0-1-6.93c-.71-2.59-1.08-5.27-1.66-7.9a15.92,15.92,0,0,0-1.07-3.39c-1.68-3.54-5-5.57-7.71-8.2-.24-.23-.86-.06-1.3-.07.05.42,0,1,.19,1.23a2.71,2.71,0,0,1,.77,2.53,21,21,0,0,1-.77,3.25.86.86,0,0,1-1.51.43c-.73-.6-1.4-1.3-2.16-1.87a8.72,8.72,0,0,0-1.54-.73c-1.17-.81-2.38-1.58-3.51-2.45a50.54,50.54,0,0,0-20.31-9.31c-2.47-.54-4.92-1.12-7.38-1.68a15.94,15.94,0,0,1,3.51-.11c2.68.52,5.33,1.26,8,1.9s4-.07,5.23-2.36a4.51,4.51,0,0,0,.63-1.15,2.23,2.23,0,0,0-.19-1.53c-.26-.34-.93-.4-1.43-.5-.21,0-.46.13-.68.2-1.08.32-1.11.2-1-.88a14.16,14.16,0,0,0-.13-3.25,11.53,11.53,0,0,0-.69-2.16c-.28-.78-.57-1.75.25-2.15a2.63,2.63,0,0,1,2.19.25c3.54,2.21,7.17,4.34,10.49,6.86,4.61,3.51,9.05,7.27,13.44,11.06,1.79,1.56,3.21,3.54,4.88,5.24a2,2,0,0,0,1.62.56c2-.47,2.42-.42,3.64,1.19,2.47,3.27,5,6.53,7.35,9.84,2.94,4.07,5.78,8.2,8.68,12.28a5,5,0,0,0,3.69,2.39,5.24,5.24,0,0,1,4.36,2.78c2.12,4,4,8.1,6,12.12a30.39,30.39,0,0,1,3.47,14.83,7.87,7.87,0,0,0,.12,1.19l.36.06a4.35,4.35,0,0,0,.45-1.08,15.42,15.42,0,0,0,0-1.8C501.52,151.07,501.78,150.6,502.54,150.56Z" transform="translate(-0.37 -0.27)"/><path class="cls-3" d="M214.48,161.1a9.57,9.57,0,0,1,1.49-.22h66.34l80.61,0,1.56,0v.23Z" transform="translate(-0.37 -0.27)"/><path class="cls-3" d="M2.32,161.1a6.68,6.68,0,0,1,1.23-.24q68.37,0,136.74,0a6.68,6.68,0,0,1,1.23.24Z" transform="translate(-0.37 -0.27)"/><path class="cls-3" d="M406,160.87l50.64,0,1.68,0,.26.06a.41.41,0,0,0,0,.22H406Z" transform="translate(-0.37 -0.27)"/><path class="cls-4" d="M406,160.87v.23H364.48v-.23Z" transform="translate(-0.37 -0.27)"/><path class="cls-3" d="M161.2,161.1a6.68,6.68,0,0,1,1.23-.24q16.65,0,33.3,0a6.68,6.68,0,0,1,1.23.24Z" transform="translate(-0.37 -0.27)"/><path class="cls-5" d="M458.56,161.1a.41.41,0,0,1,0-.22H491.9c0,.07,0,.14,0,.21Z" transform="translate(-0.37 -0.27)"/><path class="cls-6" d="M503,158.7c-.13.55-.26,1.1-.43,1.8,0-1.34,0-2.55,0-3.74,0-.33-.34-.64-.52-.95l.49-.95.49,1.44Z" transform="translate(-0.37 -0.27)"/><path class="cls-7" d="M502.54,150.56c-.76,0-1,.51-1,1.2a15.42,15.42,0,0,1,0,1.8,4.35,4.35,0,0,1-.45,1.08l-.36-.06a7.87,7.87,0,0,1-.12-1.19,30.39,30.39,0,0,0-3.47-14.83c-2-4-3.88-8.14-6-12.12a5.24,5.24,0,0,0-4.36-2.78,5,5,0,0,1-3.69-2.39c-2.9-4.08-5.74-8.21-8.68-12.28-2.4-3.31-4.88-6.57-7.35-9.84-1.22-1.61-1.65-1.66-3.64-1.19a2,2,0,0,1-1.62-.56c-1.67-1.7-3.09-3.68-4.88-5.24-4.39-3.79-8.83-7.55-13.44-11.06-3.32-2.52-6.95-4.65-10.49-6.86a2.63,2.63,0,0,0-2.19-.25c-.82.4-.53,1.37-.25,2.15a11.53,11.53,0,0,1,.69,2.16,14.16,14.16,0,0,1,.13,3.25c-.1,1.08-.07,1.2,1,.88.22-.07.47-.25.68-.2.5.1,1.17.16,1.43.5a2.23,2.23,0,0,1,.19,1.53,4.51,4.51,0,0,1-.63,1.15c-1.2,2.29-2.7,3-5.23,2.36s-5.31-1.38-8-1.9a15.94,15.94,0,0,0-3.51.11,13.4,13.4,0,0,0-1.77-.23c-4.67,0-9.35,0-14,0a3,3,0,0,0-2.93,1.84,8.29,8.29,0,0,1-2.27,1A3.17,3.17,0,0,0,394,89.85c-.35,0-.77-.1-1,.06-2.89,1.63-5.92,3.07-8.2,5.6-.56.62-1.21,1.16-1.82,1.74L380,100.6l-.68,1c-.81,1.43-1.62,2.87-2.44,4.3l-.15.28-.67,1.68-.56,1.19c-.45,1.52-.89,3-1.34,4.57L374.1,115c-1.08,2.79-.74,3.32,2.17,3.38,2.31,0,4.61.17,6.92.13a7.69,7.69,0,0,0,2.11-.66l2,.5c1.62.77,2.6.71,3.6-.22a1,1,0,0,0,0-.24c.34-1.13.12-1.5-1-1.66-.41-.06-.82-.15-1.23-.22a23.25,23.25,0,0,1,5.94-10.89c4.9-5,11-7.34,17.83-7.94,1.84-.17,2.12,0,3,1.67.37.75.86.89,1.35.07.69-1.59,1.84-1.81,3.49-1.53a41.38,41.38,0,0,1,13.3,4.42c0,.06,0,.12,0,.19.5.62.86,1.49,1.5,1.82a11.26,11.26,0,0,1,4,3.72c1.48,2.07.2,2.73-1.42,3.13a5.75,5.75,0,0,0-1,.26c-.25.13-.57.39-.6.63a46.88,46.88,0,0,0-.72,5.77c-.07,2.28,1.8,3.31,3.86,2.32a31.81,31.81,0,0,1,3.16-1.42,1.67,1.67,0,0,1,2.26,1c.71,1.5.79,2.7-.07,3.15a9.81,9.81,0,0,1-3.39,1.19,39.78,39.78,0,0,1-5.57.07c-4.37-.13-8.75-.43-13.13-.45-15.78,0-31.57,0-47.36,0a7,7,0,0,0-1.24.24c-1.86-.16-3.71-.44-5.58-.46-5-.07-10,0-15,0q-24-.1-48-.24c-5.51,0-11-.19-16.53-.23-15.06-.1-30.13-.15-45.2-.25-4.43,0-8.86-.21-13.29-.23q-31.89-.15-63.79-.25c-3.75,0-7.5-.16-11.25-.23s-7.74-.2-11.61-.24c-10.47-.1-20.94-.2-31.41-.24-11.23,0-22.47,0-33.71,0-1.07,0-2.13-.17-3.21-.21-1.53-.07-3.08-.47-4.58.21l-1.45-.71H61.36a7.32,7.32,0,0,1,1.07-1.7,2.36,2.36,0,0,0,.8-2.87,6.62,6.62,0,0,0-1.28-.85,14.22,14.22,0,0,0-2-.44c1.06-1.13,2-2.07,2.84-3a6.76,6.76,0,0,1,3.88-2.4,1.28,1.28,0,0,0,.86-.9,4,4,0,0,1,1.72-2.88A6.69,6.69,0,0,0,70.74,104a3.26,3.26,0,0,1,4.52-1.29c1.32.56,2.27-.08,2.77-1.68l-2.21-.66.44-1.4,2.42-2.14h0l1.91-1.67.49-.28.23-.15,2.92-.84c.86-.23,1.61-.45,1.23-1.66-.1-.31.28-.83.53-1.18a5.72,5.72,0,0,1,.9-.87l0,0,3-2.23,2.64-2.21c1,.48,2,1,3,1.41A1.9,1.9,0,0,0,98,86c.26-1.24-.86-1-1.52-1.33l-.11-1.34c1.43-.95,2.88-1.86,4.27-2.86a9.58,9.58,0,0,1,5.82-2.22,1.71,1.71,0,0,0,1.33-.93c.47-1.7,1.69-2.5,3.13-3.22a30.73,30.73,0,0,0,4.09-2.45c1.5-1.08,2-1.14,3.44.06a2.25,2.25,0,0,0,2.75.18c.91-.75.79-1.51-.26-2a6.9,6.9,0,0,1-1-.72.58.58,0,0,0,.19,0l.31-.31a1.27,1.27,0,0,0,.44-.07l7.44-4a3.6,3.6,0,0,1,3-.46c.83.28,2.51-.6,2.47-1.27s.4-1,1-1.29c2.45-1.11,4.89-2.25,7.35-3.35,1.64-.75,1.86-.68,3,.69a2.4,2.4,0,0,0,.53.48,2.18,2.18,0,0,0,2.74-.75c.69-.84-.09-1.17-.51-1.66a3.57,3.57,0,0,1-.33-.68c1.5-.62,3-1.24,4.48-1.88l2.67-1.2,1.67-.76,2.16-.07c1.77.85,2.6.59,3.72-.91a3.79,3.79,0,0,1,1.7-1.19c2.55-.87,5.14-1.62,7.7-2.44,1.75-.56,1.74-.57,2.75.92.72,1.07,1.26.93,3,.28,1.07-.41.5-1.12.18-1.76s-.36-1,.53-1.13a42.07,42.07,0,0,0,4.24-1.13c2.6-.77,5.18-1.42,7.94-.63.6.17,1.47-.49,2.18-.83a11.71,11.71,0,0,1,2.24-1.17c2.67-.57,5.39-.94,8.06-1.49,1.72-.36,1.62-.39,2.41,1.14a2.15,2.15,0,0,0,1.65,1c.57,0,1.62-.76,1.58-1-.32-1.89,1-1.79,2.13-2,.51-.07,1-.16,1.53-.25,3.36-.61,6.71-1.33,10.13-.1.58.21,1.45-.35,2.17-.6a11.7,11.7,0,0,1,2-.75c2.17-.27,4.36-.42,6.54-.61l3.59.16.07,1.34c.55,1.21,1.67,1,2.65,1s1.3-.51,1.59-1.31a6.39,6.39,0,0,1,1-1.38l5.53-.29c1.59.08,3.18.13,4.76.27a4.15,4.15,0,0,1,1.77.53,2.51,2.51,0,0,0,2.9,0,2.63,2.63,0,0,1,1.42-.38c4.37.21,8.75.46,13.12.7,2.49,1.32,5.25,1.54,8,1.85a243.82,243.82,0,0,1,25.91,4.29,1.92,1.92,0,0,0,1.06,0,1.51,1.51,0,0,0,.8-.75c.08-.22-.23-.59-.41-.86a3,3,0,0,0-.53-.47l1.29-1.05a1.82,1.82,0,0,0,1.81-1.3c2-4.55,4.06-9.09,6.06-13.66.11-.25-.06-.62-.11-.94-.35.08-.79,0-1,.24A4.68,4.68,0,0,0,313.4,27c-1.17.12-1.36-.38-1.18-1.47.07-.47-.56-1-.87-1.57l-.87.61-.54,1.19-1.84-.46-.4-1.37c-.39.27-.78.51-1.14.8a2.64,2.64,0,0,0-.4.57c-1.31.34-1.47.22-1.7-1.07a2.21,2.21,0,0,0-.38-.63c-.4-.76-.76-.54-1.06.07-.42.85-.8,1.72-1.2,2.58L300.35,25l.3-2.2c-.84-.31-1.33-.18-1.52.66a10.19,10.19,0,0,1-.42,1.12c-1.22.09-1.6-.66-1.66-1.68s-.39-1.37-1.43-1.12a3.08,3.08,0,0,1-1.59-.11,9.59,9.59,0,0,1-1.68-.94l-.35,1c-.23.49-.46,1-.68,1.47a1.72,1.72,0,0,1-1.55-1.53c-.1-.54-.82-1-1.26-1.45l-.48.14-.77,3.12a1.21,1.21,0,0,1-.05.18l-1.46-1.21,0-.7c.14-.12.42-.29.4-.34-.17-.45-.3-1.13-.62-1.25a3,3,0,0,0-1.73.05,13.65,13.65,0,0,0-1.86.79l-.07-.44c0-1-.46-1.14-1.16-.6a1.91,1.91,0,0,1-2.79-.09c-.15-.13-.56,0-.85,0-.84,0-1.67-.06-2.51,0-8.63,0-17.25.13-25.87.17-7.11,0-14.22,0-21.34,0a9.74,9.74,0,0,0-1.42.13c-1.92.28-3.83.56-5.75.86-.93.14-1.85.34-2.77.51s-1.84.53-2.76.76a7.1,7.1,0,0,1-1.64.26c-2.05,0-4.12-.1-6.16.05a6.86,6.86,0,0,0-2.22,1.07c-4.71.48-9.44.82-14.12,1.5-3.09.44-6.12,1.39-9.17,2.11a9,9,0,0,0-1.28.22c-1.36.42-2.7.88-4.06,1.33l-1.9.58c-1.67.53-3.31,1.4-5,1.53A17.73,17.73,0,0,0,163.62,32c-4.27,1.09-8.59,2-12.81,3.33-2.8.85-5.45,2.19-8.2,3.24-3.38,1.29-6.88,2.33-10.18,3.79-4.5,2-8.88,4.32-13.31,6.5-1.89.93-3.78,1.85-5.65,2.81-4.19,2.16-8.56,4-12.51,6.58-8,5.15-15.87,10.62-23.74,16a11.66,11.66,0,0,0-1.94,2.33,8.33,8.33,0,0,0-1,.61q-5.11,3.92-10.2,7.85c-1,.12-2.06.17-3.06.38a1.53,1.53,0,0,1-2-1.13c-.16-.54-.28-1.08-.46-1.61-.37-1.1-1.16-1.43-2.12-.75a52,52,0,0,0-4.23,3.29C48,89,43.7,92.73,39.61,96.64c-1.92,1.83-3.48,4-5.22,6-1.19,1.39-2.33,2.83-3.62,4.13a31.85,31.85,0,0,0-5.57,7,11.91,11.91,0,0,1-6.6,5.25,30.57,30.57,0,0,1-4.71,1.26c-1.87.38-2.62,1.83-3.37,3.28-2.82,5.51-5.6,11-8.4,16.54l-.56,1.1c-.39-1.48-.23-3.28,1-5.71,2.14-4.27,4.45-8.47,6.72-12.68,1.25-2.3,2.57-4.57,3.85-6.86.42-.62.82-1.26,1.25-1.87,3.5-4.93,6.92-9.92,10.52-14.77,2.84-3.82,5.9-7.48,8.87-11.21a11.18,11.18,0,0,0,.9-.78c1.78-1.93,3.49-3.93,5.35-5.79,3.52-3.54,7.12-7,10.7-10.48.25-.25.54-.47.81-.7a4.71,4.71,0,0,0,1-.46c3.36-2.54,6.63-5.2,10.08-7.63,3-2.13,6.19-4,9.36-6,2.66-1.6,5.37-3.16,8.16-4.53,3.31-1.63,6.73-3,10.12-4.52,4.79-2.07,9.52-4.3,14.4-6.14,7.27-2.73,14.63-5.22,22-7.75,4.75-1.63,9.48-3.34,14.32-4.68,9.27-2.57,18.6-4.95,27.93-7.32a306.14,306.14,0,0,1,32.74-6.22c5.5-.78,11-1.51,16.52-2.12,4.66-.52,9.34-.86,14-1.22s9.59-.85,14.39-.92c7.19-.11,14.38,0,21.57.21,4.73.11,9.46.44,14.19.71,2.26.13,4.53.23,6.77.53,4.75.63,9.49,1.4,14.24,2.09,4.08.6,8.2,1,12.24,1.8,5.72,1.15,11.44,2.43,17.06,4,9.7,2.7,19.4,5.47,29,8.57,10.22,3.32,20.3,7.05,30.45,10.61,1.26.48,2.55.92,3.78,1.46,6.42,2.83,12.93,5.49,19.22,8.58,5.31,2.61,10.44,5.64,15.53,8.68A107.37,107.37,0,0,1,440.7,65a66,66,0,0,1,6.86,5.47c2.9,2.88,6.26,5.3,9.18,8.17,3.57,3.52,7,7.23,10.3,11,2.72,3.06,5.21,6.32,7.84,9.45,1.65,2,3.4,3.86,5.05,5.84a11.08,11.08,0,0,1,1,1.84,8.82,8.82,0,0,0,.81,1.27c1.48,1.81,3.13,3.5,4.41,5.43,1,1.5,1.48,3.35,2.36,5,2.62,4.75,5.38,9.42,8,14.18,1.2,2.2,2,4.61,3.23,6.8a17.79,17.79,0,0,1,2.34,9.13c0,.29.33.59.5.88Zm-387.9-33.39a.33.33,0,0,0,.06.1s0,0,.06,0l-.13-.06.09-.23,0-.06,0-.05a8.34,8.34,0,0,1,1.23.23.91.91,0,0,0,1.3-.65l.7-1,1.53,1.76c.83-1.38.8-2,0-2.45-1.14-.71-2.07-.57-2.74.43l-1-1.26L114.63,115c-.47-.25-.94-.7-1.43-.72-1.32,0-2.65.08-4,.14l-.36-.93-.11.41c-1,.11-2,.29-3,.32a4.24,4.24,0,0,1-1.49-.4c-2.07-.75-4.13-1.24-6.2,0a8,8,0,0,0-.77-.29c-2.7-.76-5.41-.24-8.11,0l-1.72-.27a7.12,7.12,0,0,0-.25,2.39c.1.42,1,.66,1.52,1,2.81.09,5.62.18,8.43.25.22,0,.44-.17.65-.26,1.19.28,2.37.64,3.57.83a2.72,2.72,0,0,0,2.95-1.3c.77-1.2,1.14-1.12,1.88.14.16.26.36.49.7,1l1.66-2.47.31,2.14.4.08a9.24,9.24,0,0,1,.65-1.25,1,1,0,0,1,.74-.45c.21,0,.45.35.59.59s.3.73.56,1.38l1-2.6,1.58,2.26ZM310.77,82l-.23-.37c-.14-.08-.27-.24-.4-.24-2.54,0-5.09-.1-7.63,0a1.16,1.16,0,0,0-1.11,1.44,17,17,0,0,0,.7,2.27l.4,0a12,12,0,0,0,.43-1.41c.14-.74.38-1.29,1.27-1.29a1.37,1.37,0,0,1,1.53,1.34,3.39,3.39,0,0,0,.3,1c.11.22.37.36.56.54a2.41,2.41,0,0,0,.53-.69c.11-.38,0-.85.14-1.18s.62-1,.95-1a2.48,2.48,0,0,1,1.48.69c.24.21.17.76.34,1.11a4.25,4.25,0,0,0,.68.8l.29-.4,0-.05.67-.38.61,1.07c.26.93.86,1,1.67.72a5.43,5.43,0,0,1,1.82-.43c1.38.06,2-.37,2.1-1.74s-.52-2.36-1.81-2.41a23,23,0,0,0-2.75,0c-.29,0-.57.28-.86.44L311.77,83l-1-.89Zm109.89,26.51-.43-.2-.8,0c-1.61-.1-3.23-.22-4.84-.3-1.06,0-1.43.56-1.28,1.52.43,2.71.88,5.41,1.32,8.11-.79.61-.62,1,.31,1,1.5.09,3,.13,4.51.14.68,0,1.36-.1,2.27-.18-.32-.49-.49-.73-.66-1l.07-.47a5.06,5.06,0,0,1,.88.3,2,2,0,0,0,2.53-.11c.82-.72.59-1.51.28-2.39a42.46,42.46,0,0,1-1.26-4.07,2.73,2.73,0,0,0-2.92-2.38ZM330.88,77.1a2.48,2.48,0,0,0,2.91,1.67c2.33-.15,4.65-.3,7-.48,1-.08,1.76-.51,1.6-1.73l0-.88c.18-.79.34-1.59.53-2.38.36-1.48.34-3.26,1.19-4.38a54.51,54.51,0,0,1,6.24-6.66c3.17-3,7.25-4.18,11.29-5.38.63-.2,1.45.22,2.18.35-.93.33-1.87.61-2.78,1-1.81.76-3.6,1.56-5.4,2.35a7.92,7.92,0,0,0-2,1,82.12,82.12,0,0,0-5.93,5.87,15,15,0,0,0-3.6,8.93c0,1.32.38,1.69,1.57,1.37a8.81,8.81,0,0,0,1.7-.87c.45-1.7-1.35-.86-1.91-1.85.54-1.33,1.07-2.91,1.81-4.38,1.94-3.84,5.07-6.59,8.58-9,16.81-9.21,39.21-1.82,47.32,13.93-.33.17-.68.32-1,.52s-.89.55-.85.65c.15.4.5,1,.75,1a23.89,23.89,0,0,0,3-.49l1.14-.24a3.09,3.09,0,0,0,2.73,1.17h6.32c2.85,0,3.16-.49,2-3.15,0-1.07-.86-1.09-1.51-1.12a2.14,2.14,0,0,1-1.88-1.4A30.82,30.82,0,0,0,412,69.2a44.7,44.7,0,0,0-10.37-10.8,66.65,66.65,0,0,0-11.5-6.55,42.91,42.91,0,0,0-17.61-4.22,92.87,92.87,0,0,0-12,.7c-7.37.89-13.68,4.25-19.31,9-5,4.18-7.83,9.79-10.4,15.57-.37.85,0,2,0,3Zm69.58,38.61c.43-1-.16-1.33-1-1.38-1.12-.06-2.24,0-3.35-.06-.56,0-1.29.14-1.2-.68,0-.27.79-.61,1.25-.65,1-.1,2,0,3-.06.4,0,.76-.43,1.14-.67-.39-.24-.76-.68-1.16-.7-1.75-.07-3.51,0-5.27,0a1.09,1.09,0,0,0-1.24,1.26,35.48,35.48,0,0,0,.26,3.58,2.5,2.5,0,0,0,2.39,2.3c1.55.13,3.1.21,4.66.19.43,0,.87-.42,1.3-.64l-1-.9Zm-192-70c1.16,0,2.32,0,3.47-.11.38,0,.72-.46,1.08-.71-.32-.27-.64-.78-1-.78-2.31,0-4.63,0-6.93.15a2.16,2.16,0,0,0-1.95,2.11c-.08.83-.15,1.67-.2,2.5-.12,1.84.62,2.87,2.44,3a51.17,51.17,0,0,0,5.94,0,2.27,2.27,0,0,0,2.36-2.66c-.1-1.42-1-2.1-2.64-2.14-.86,0-1.73-.13-2.59-.19Zm86.16,49.15V93.7c2.38-.2,3.21-1,3.12-3.42-.13-3.6-.34-7.19-.53-10.78-.3-5.73-.66-11.47-.89-17.21a6.51,6.51,0,0,0-6-6.11c-1.71,0-3.43-.12-5.14-.13-6.28,0-12.56,0-18.83-.07-1.77,0-3.58.27-5.26-.63a2.5,2.5,0,0,0-1.07-.09q-21.47,0-42.93,0a9.59,9.59,0,0,0-2,.39,8.52,8.52,0,0,1-1.47.3c-2.76.1-5.52.1-8.27.27a4.15,4.15,0,0,0-3.84,3.49,50.65,50.65,0,0,0-.3,5.24q-.47,12.15-.92,24.3a4.86,4.86,0,0,0,1.45,3.88l-1.45,1.71c-2.08,0-4.16-.06-6.24,0-2.39.09-4.37,1.45-4.34,4.07,0,1.71-.16,3.42-.24,5.12-.15,3.26-.49,6.52-.39,9.77.06,2.1.49,3.89,3.51,4.1,3.53.23,7.06.63,10.58.65,28.42.13,56.83.17,85.24.29,3.93,0,7.87.42,11.81.41a24.32,24.32,0,0,0,5.85-.9c2.6-.67,3.39-2.19,3-5-.18-1.17-.41-2.35-.48-3.53-.14-2.31-.1-4.62-.29-6.92s-.57-4.44-.83-6.4A36.62,36.62,0,0,0,294.64,94.86ZM324.44,115a3.2,3.2,0,0,0,3.47-1.65,3.29,3.29,0,0,0-.39-3.81,9.24,9.24,0,0,0-2.58-2,4.38,4.38,0,0,0-4.52,1,3.66,3.66,0,0,0-.66,4.31C320.7,114.67,322.37,115.08,324.44,115Zm-145-62.64a23.36,23.36,0,0,0,2.91,0c.42-.05.8-.48,1.21-.75-.39-.22-.77-.62-1.17-.63-2.43-.1-4.86-.15-7.29-.13-.5,0-1.36.29-1.42.58a6.12,6.12,0,0,0-.08,3c.13.43,1.31.69,2,.75,1.67.12,3.35,0,5,.14.4,0,.76.59,1.14.91a6,6,0,0,1-1.1,1c-.28.16-.7.06-1.06.07-1.87,0-3.75,0-5.62.09-.3,0-.58.48-.87.73.3.26.57.67.9.73a11,11,0,0,0,2.15,0c1.95-.06,3.91,0,5.84-.25a2.54,2.54,0,0,0,.15-4.77,22.72,22.72,0,0,0-2.75-.4Zm90.89-2.69v0c1,0,1.92,0,2.88,0,1.69-.06,2.3-.62,2.37-2.32a16.22,16.22,0,0,0-.11-2.87c-.18-1.58-.75-2.28-2.3-2.41-2.22-.19-4.46-.18-6.69-.22a1.69,1.69,0,0,0-1,.3,1.54,1.54,0,0,0-.59.92c-.13,1.14-.14,2.29-.23,3.44a2.63,2.63,0,0,0,2.69,3.18C268.32,49.76,269.33,49.7,270.32,49.7Zm32.77,4v0c1.2,0,2.4-.08,3.59-.17,1.67-.12,2.27-.74,2.31-2.42a19.08,19.08,0,0,0-.14-2.27c-.23-2.08-1.16-3.07-3.2-3.17-1.79-.09-3.6-.08-5.39,0-1.58.06-2.27.79-2.31,2.18-.05,1.68.59,2.48,2.22,2.68a23.75,23.75,0,0,0,2.39.11c1.16,0,2.32,0,3.47.12.32,0,.6.46.9.7a3.69,3.69,0,0,1-.86.82,2.64,2.64,0,0,1-1.06.06c-1.8,0-3.6,0-5.4,0-.32,0-.63.41-.95.63.32.22.62.6.95.62C300.77,53.75,301.93,53.7,303.09,53.7ZM104.58,93.49c1.24,0,2.48.06,3.71,0a4.67,4.67,0,0,0,1.43-.68,4,4,0,0,0-1.35-.62c-1.87-.06-3.74,0-5.61,0-.38,0-.73-.5-1.1-.77a6.36,6.36,0,0,1,1-1c.19-.13.54,0,.82,0,1.87-.16,3.74-.28,5.6-.5,1.1-.12,1.51-.94,1.56-2s-.13-2-1.16-2.09c-2.62-.23-5.26-.24-7.89-.29a.82.82,0,0,0-.55.59c0,.21.31.5.55.61a2.26,2.26,0,0,0,.83,0c1.76,0,3.52,0,5.27.11.34,0,.66.5,1,.76a6.83,6.83,0,0,1-1,1c-.2.13-.55,0-.83.06-1.59.11-3.19.15-4.78.34a2.85,2.85,0,0,0-2.67,3.32c.06.87.43,1.28,1.37,1.22C102,93.43,103.3,93.48,104.58,93.49ZM76,116.78v.08c.68,0,1.36,0,2,0,2.48,0,3.25-.55,3.79-3a18.94,18.94,0,0,0,.44-2.46c.15-2-.44-2.73-2.45-2.84a48.58,48.58,0,0,0-5.26,0c-1.48.07-2.86.64-3.24,2.19a18.54,18.54,0,0,0-.37,4.35,1.62,1.62,0,0,0,1.71,1.65C73.76,116.82,74.88,116.78,76,116.78Zm47.56-41.63c0,1.16.78,1.17,1.42,1.19,1.48.06,3,0,4.44,0,.7,0,1.17.18,1.11,1s-.2,1.17-1.13,1.13c-1.84-.09-3.68,0-5.52,0-.73,0-1.25.23-1.18,1.28,2.5,0,5,.08,7.5,0a2.34,2.34,0,0,0,2.16-2.23,22.58,22.58,0,0,0,.23-3.58c0-1.48-.54-2-2-2.09-1.88-.08-3.76-.09-5.63,0-.38,0-.74.41-1.11.62.38.24.76.67,1.16.69,1.55.08,3.12,0,4.67.06.38,0,.74.4,1.11.61a5.55,5.55,0,0,1-.89,1.22c-.23.19-.69.13-1,.13Zm31.11-14.72c.06-1.09-1.06-1.67-2.24-1-2.43,1.27-4.8,2.66-7.18,4a1.23,1.23,0,0,0-.57.58c-.24.62-.19,1.27.63,1.34a29,29,0,0,0,4.27.11,3.06,3.06,0,0,1,3,1.16c.43.61.75.5,1.22,0s1.16-.86,1.64-1.38a1.31,1.31,0,0,0,0-1c-1.16-.23-1.12-1.06-1-1.94ZM357.77,75.16c-2.08,1.57-2.75,1.74-4.9,1.27-1.82-.39-2.48-1.33-2.1-3.15a1.51,1.51,0,0,1,.92-1c2-.47,4.06-.68,5.59,1.16,1-.63.88-1.32.16-1.79a5.38,5.38,0,0,0-2.2-.78,18.67,18.67,0,0,0-3,0c-2.73.12-3.39.89-3.07,3.6a3.32,3.32,0,0,0,.26,1.28c.37.59.79,1.37,1.35,1.56a11.21,11.21,0,0,0,6.71.08C358.73,77.07,358.8,76.13,357.77,75.16ZM235.18,48.77a1.85,1.85,0,0,0,2-.5c2-1.81,3.94-3.61,5.88-5.45.25-.23.49-.84.37-1a1.71,1.71,0,0,0-1.13-.68q-4.14-.09-8.28,0c-.28,0-.56.46-.84.7.26.24.5.64.79.68a23.32,23.32,0,0,0,2.51,0h4.05ZM393.72,75.18l.69-.06c2.32-.19,2.5-.07,3.41,2.09a1.19,1.19,0,0,0,.73.5c.29-.25.72-.66.68-.95a42.59,42.59,0,0,0-.86-4.45c-.08-.33-.6-.55-.91-.82a3.15,3.15,0,0,0-.36,1.07c0,.77-.08,1.37-1,1.38s-1.66,0-2.49,0c-1.52.06-1.93-.23-2.5-1.67-.13-.34-.52-.57-.79-.85-.2.38-.59.78-.56,1.13a42.64,42.64,0,0,0,.66,4.37c.07.3.55.52.84.77.2-.34.55-.67.56-1,0-1.52,0-1.52,1.54-1.54A3,3,0,0,1,393.72,75.18Zm-26-.09a12.58,12.58,0,0,0,3.3.35,2.41,2.41,0,0,1,2,.3,2.76,2.76,0,0,0,1.67.38c.29,0,.82-.72.74-.93-.55-1.52.1-2.21,1.52-2.55l-1.92-.26-.09-.31,1.68-1-.94-.36.8-1-1-.47-1-.5-1.22-.66a4.68,4.68,0,0,0-.61,1.62,27.28,27.28,0,0,0,.44,3c.21,1.49-.53,2.16-2,1.87C370,74.34,368.82,74,367.72,75.09Zm-48,10.42c.12-.68.18-1.15.28-1.62.29-1.38.74-1.61,2.09-1.38,1.1.19,1.28.87,1.34,1.79a1.29,1.29,0,0,0,.56.9c.19.1.73-.13.89-.36.66-1-.55-3.36-1.79-3.44-1.44-.09-3,.27-4-1.36C318.56,82.1,318.44,83.79,319.74,85.51Zm-234,20.42c.16.18.48.79.74.77a1.36,1.36,0,0,0,1-.85c.39-2,.69-4.09.91-6.15,0-.33-.47-.72-.72-1.09-.31.28-.84.52-.9.85C86.38,101.5,86.1,103.55,85.74,105.93ZM368.79,77.1l0,.27a10.88,10.88,0,0,0,1.26.17c2.83,0,5.65,0,8.48,0a3.18,3.18,0,0,0,1-.37c-.34-.17-.67-.5-1-.5-2.79,0-5.57,0-8.36,0A5.58,5.58,0,0,0,368.79,77.1ZM85.65,114.5c-1.59-.84-2.88,0-2.88,2.12h2.62Zm295-39.72H377C377.42,75.93,378.44,75.92,380.64,74.78Z" transform="translate(-0.37 -0.27)"/><path class="cls-8" d="M392.08,39.42c-10.15-3.56-20.23-7.29-30.45-10.61-9.58-3.1-19.28-5.87-29-8.57-5.62-1.56-11.34-2.84-17.06-4-4-.82-8.16-1.2-12.24-1.8-4.75-.69-9.49-1.46-14.24-2.09-2.24-.3-4.51-.4-6.77-.53-4.73-.27-9.46-.6-14.19-.71-7.19-.17-14.38-.32-21.57-.21-4.8.07-9.6.56-14.39.92s-9.35.7-14,1.22c-5.51.61-11,1.34-16.52,2.12a306.14,306.14,0,0,0-32.74,6.22c-9.33,2.37-18.66,4.75-27.93,7.32-4.84,1.34-9.57,3.05-14.32,4.68-7.35,2.53-14.71,5-22,7.75-4.88,1.84-9.61,4.07-14.4,6.14-3.39,1.47-6.81,2.89-10.12,4.52-2.79,1.37-5.5,2.93-8.16,4.53-3.17,1.91-6.34,3.83-9.36,6-3.45,2.43-6.72,5.09-10.08,7.63a4.71,4.71,0,0,1-1,.46c.88-2.91-.11-4.9-2.92-6A2.45,2.45,0,0,1,47,61.52c2.5-2,4.92-4.18,7.53-6.07C73.63,41.61,94.59,31.26,116.68,23.1A319.08,319.08,0,0,1,166.67,9c9.78-1.89,19.61-3.6,29.48-5,8.45-1.17,17-1.75,25.5-2.53,2.86-.26,5.84.06,8.6-.6C235-.25,239.63.56,244.31.39s9.52-.07,14.28-.08c3.24,0,6.48-.06,9.71.06,1.73.06,3.44.55,5.18.68,4.94.36,9.89.55,14.83,1,4.49.36,9,.86,13.44,1.39s8.7,1.06,13,1.73q8.18,1.26,16.32,2.76c2.43.45,4.81,1.22,7.23,1.76,1.26.27,2.56.37,3.84.55a10.56,10.56,0,0,0,.82.68c.78.51,1.58,1,2.37,1.5.33.29.75.46,1.1.72s.57.62.89.9c1.05.91,2.73,1.07,3.1,2.81.09.42.86,1,1.26.17a1.57,1.57,0,0,1,2-1,2.54,2.54,0,0,1,1.13,1.73c.34,1.68,1.09,2.34,2.77,2.1a6.79,6.79,0,0,1,4,2c.06.1.14.22.12.32-.17,1,.59,1.18,1.23,1.14,1.91-.13,2.86,1.37,3.78,2.47a15.16,15.16,0,0,0,4.45,3.66,1.55,1.55,0,0,0,.91,0,2,2,0,0,1,2.31,1,3.3,3.3,0,0,0,1.36,1.31c2.47,1.17,5,2.25,7.5,3.35,2.85,1.24,5.72,2.45,8.56,3.71C392,38.85,392,39.2,392.08,39.42Z" transform="translate(-0.37 -0.27)"/><path class="cls-9" d="M392.08,39.42c-.07-.22-.08-.57-.22-.63-2.84-1.26-5.71-2.47-8.56-3.71-2.51-1.1-5-2.18-7.5-3.35a3.3,3.3,0,0,1-1.36-1.31,2,2,0,0,0-2.31-1,1.55,1.55,0,0,1-.91,0,15.16,15.16,0,0,1-4.45-3.66c-.92-1.1-1.87-2.6-3.78-2.47-.64,0-1.4-.13-1.23-1.14,0-.1-.06-.22-.12-.32a6.79,6.79,0,0,0-4-2c-1.68.24-2.43-.42-2.77-2.1A2.54,2.54,0,0,0,353.71,16a1.57,1.57,0,0,0-2,1c-.4.83-1.17.25-1.26-.17-.37-1.74-2.05-1.9-3.1-2.81-.32-.28-.55-.65-.89-.9s-.77-.43-1.1-.72c-.79-.5-1.59-1-2.37-1.5a10.56,10.56,0,0,1-.82-.68A328.51,328.51,0,0,1,403,29.82a239,239,0,0,1,40,21.93c1.44,1,2.74,2.21,4.22,3.15a116.43,116.43,0,0,1,15,11.67c13.91,12.37,25.41,26.55,32.94,43.73A105.57,105.57,0,0,1,502,134.92c.81,4.72.35,9.4.57,14.09a1.43,1.43,0,0,1-.09.34c-.17-.29-.5-.59-.5-.88a17.79,17.79,0,0,0-2.34-9.13c-1.21-2.19-2-4.6-3.23-6.8-2.59-4.76-5.35-9.43-8-14.18-.88-1.6-1.35-3.45-2.36-5-1.28-1.93-2.93-3.62-4.41-5.43a8.82,8.82,0,0,1-.81-1.27,11.08,11.08,0,0,0-1-1.84c-1.65-2-3.4-3.86-5.05-5.84-2.63-3.13-5.12-6.39-7.84-9.45-3.33-3.76-6.73-7.47-10.3-11-2.92-2.87-6.28-5.29-9.18-8.17A66,66,0,0,0,440.7,65a107.37,107.37,0,0,0-10.09-6.81c-5.09-3-10.22-6.07-15.53-8.68-6.29-3.09-12.8-5.75-19.22-8.58C394.63,40.34,393.34,39.9,392.08,39.42Z" transform="translate(-0.37 -0.27)"/><path class="cls-10" d="M33.76,88.13c-3,3.73-6,7.39-8.87,11.21-3.6,4.85-7,9.84-10.52,14.77-.43.61-.83,1.25-1.25,1.87a3.86,3.86,0,0,1-4.2-1c-.52-.53-1.66-.45-2.52-.64,1.21-3,2.2-6,3.66-8.87A112.88,112.88,0,0,1,26.78,80.7c.62-.68,1.29-1.3,1.93-1.94l3.92,2.82c1.94,1.4,2.66,1.91,1.69,4.51C34.08,86.75,33.94,87.45,33.76,88.13Z" transform="translate(-0.37 -0.27)"/><path class="cls-11" d="M33.76,88.13c.18-.68.32-1.38.56-2,1-2.6.25-3.11-1.69-4.51l-3.92-2.82A113.35,113.35,0,0,1,47,61.52a2.45,2.45,0,0,0,1.63,2.84c2.81,1.12,3.8,3.11,2.92,6-.27.23-.56.45-.81.7C47.13,74.56,43.53,78,40,81.56c-1.86,1.86-3.57,3.86-5.35,5.79A11.18,11.18,0,0,1,33.76,88.13Z" transform="translate(-0.37 -0.27)"/><path class="cls-12" d="M373.84,123.43a7,7,0,0,1,1.24-.24c15.79,0,31.58,0,47.36,0,4.38,0,8.76.32,13.13.45a39.78,39.78,0,0,0,5.57-.07,9.81,9.81,0,0,0,3.39-1.19c.86-.45.78-1.65.07-3.15a1.67,1.67,0,0,0-2.26-1,31.81,31.81,0,0,0-3.16,1.42c-2.06,1-3.93,0-3.86-2.32a46.88,46.88,0,0,1,.72-5.77c0-.24.35-.5.6-.63a5.75,5.75,0,0,1,1-.26c1.62-.4,2.9-1.06,1.42-3.13a11.26,11.26,0,0,0-4-3.72c-.64-.33-1-1.2-1.5-1.82l1.1.38,1.26.69.37.18.83.56.25.15.47.32a40.76,40.76,0,0,1,9.32,9.58c.31.51.63,1,.93,1.52.6,1,.33,1.56-.86,1.75-.32,0-.81.25-.86.46a1.7,1.7,0,0,0,.21,1.21c.56.82,3.19.79,3.71,0a1.4,1.4,0,0,0-.05-1.18c-.62-1.21-1.33-2.38-2-3.56l-.29-.93a15.8,15.8,0,0,1,2.22,1.62,23.21,23.21,0,0,1,1.82,2.45c.21.86.58,1.65,1.58,1.67,3.14,0,6.28,0,9.42,0a1.44,1.44,0,0,0,1-1c.09-.84-1-1.79-1.88-1.86-1.82-.57-2.79-2-3.6-3.58a36.2,36.2,0,0,0-6.71-9.25c-1.18-1.17-2.25-2.47-3.37-3.71a8.72,8.72,0,0,1,1.54.73c.76.57,1.43,1.27,2.16,1.87a.86.86,0,0,0,1.51-.43,21,21,0,0,0,.77-3.25,2.71,2.71,0,0,0-.77-2.53c-.23-.23-.14-.81-.19-1.23.44,0,1.06-.16,1.3.07,2.68,2.63,6,4.66,7.71,8.2a15.92,15.92,0,0,1,1.07,3.39c.58,2.63.95,5.31,1.66,7.9a22.68,22.68,0,0,1,1,6.93c-.07,1.76.8,2.52,2.53,2.6q6.85.31,13.7.73a11.62,11.62,0,0,1,3.39.55,4.58,4.58,0,0,1,2.1,1.74c2.41,3.9,4.79,7.82,7,11.82a31.89,31.89,0,0,1,4,11.8,9.05,9.05,0,0,1-3.36,8.56,12.74,12.74,0,0,1-2.15,1c-.57.3-1.07.71-1.61,1.06H458.58l-.26-.06v-.92a8.17,8.17,0,0,1,1.37-.23c7.51,0,15,0,22.53,0a25.06,25.06,0,0,0,4.39-.77c-.17-1.39-.36-2.46-.44-3.55s0-1.91,0-2.87a1.33,1.33,0,0,0-1.79-1.33,7.66,7.66,0,0,0-1,.37,14.86,14.86,0,0,1-12.36-.35,19.54,19.54,0,0,1-8.38-7.57c-1-1.61-2-1.54-2.9.14-.69,1.26-1.29,2.57-2,3.79a8.31,8.31,0,0,1-5.94,4.2,27.42,27.42,0,0,1-5.8,0,12.31,12.31,0,0,1-8.05-3.75c-1-1-1.89-2.13-2.84-3.2-.18-.52-.34-1.05-.55-1.57a12,12,0,0,1-.75-6.43c.42-2.58,2.25-4.14,4-5.79.25-.24.49-.5.73-.75l-.22-.39a9.75,9.75,0,0,0-1.54.57,4.47,4.47,0,0,1-4.55,0A34,34,0,0,1,428,127.7c-1.94-1.43-3.61-3.33-6.16-3.67a37.93,37.93,0,0,0-5.11-.35q-20.73,0-41.47,0A8.3,8.3,0,0,1,373.84,123.43ZM479,137.17l-6.08-.33-1.12-.11c-1.37.19-2.74.4-4.11.57-.75.09-.88.4-.46,1a8.61,8.61,0,0,1-1.19,1.41c-1.34,1.07-1.61,2.14-.65,3.51a13.88,13.88,0,0,0,14.51,5.84,2.53,2.53,0,0,0,2.2-2.79,7.93,7.93,0,0,0-.47-2.67,3,3,0,0,1,.72-3.86c1.21-.34,1.69-1.06,1.19-1.79C482.74,136.84,480.17,136.4,479,137.17Zm-27.61-.3c-.21-1-.91-.7-1.55-.59-2.81.1-5.62.16-8.42.32-.37,0-.71.48-1.06.74a11.94,11.94,0,0,1-2.87,2.8c-1.25.83-1.33,1.81-.6,3.24a10.58,10.58,0,0,0,4.44,4.52,17.68,17.68,0,0,0,6.51,1.78,8.8,8.8,0,0,0,5.3-.9c3.21-1.71,3.11-5.12,2.16-7.81,0-.13-.32-.18-.48-.26A6.44,6.44,0,0,1,451.36,136.87Zm-7.26-21.51-.08-.5c-1-.08-2-.18-3-.24a15,15,0,0,1-2-.09c-.28,0-.48-.51-.71-.79.25-.2.49-.56.77-.59.79-.09,1.6,0,2.39-.07s1.69-.27,2.54-.4l0-.57c-2.25-.06-4.5-.15-6.76-.15-.21,0-.63.58-.6.84.25,1.7.56,3.39.93,5.06.09.39.54.69.82,1l.37-.18c0-.37,0-.75,0-1.12,0-1.34.41-1.8,1.77-1.81.72,0,1.44.09,2.15,0A7.66,7.66,0,0,0,444.1,115.36Z" transform="translate(-0.37 -0.27)"/><path class="cls-13" d="M435,144.77c.95,1.07,1.85,2.18,2.84,3.2a12.31,12.31,0,0,0,8.05,3.75,27.42,27.42,0,0,0,5.8,0,8.31,8.31,0,0,0,5.94-4.2c.75-1.22,1.35-2.53,2-3.79.94-1.68,1.87-1.75,2.9-.14a19.54,19.54,0,0,0,8.38,7.57,14.86,14.86,0,0,0,12.36.35,7.66,7.66,0,0,1,1-.37,1.33,1.33,0,0,1,1.79,1.33c0,1,0,1.92,0,2.87s.27,2.16.44,3.55a25.06,25.06,0,0,1-4.39.77c-7.51.09-15,0-22.53,0a8.17,8.17,0,0,0-1.37.23c-5-.08-10-.13-15-.25-5.34-.13-10.67-.33-16-.47-4.35-.11-8.7-.11-13-.25-5.45-.19-10.9-.48-16.35-.72-3.65-.16-7.31-.38-11-.45q-10.41-.21-20.84-.24c-3.09,0-6.18.19-9.27.2-2.5,0-5-.14-7.52-.22a32,32,0,0,0-4.41-.69c-4.64-.09-9.28,0-13.91,0-.36,0-.72,0-1.08,0-3.56-.3-7.11-.66-10.67-.9-2.5-.17-5-.17-7.52-.28-.26,0-.52-.24-.77-.36.2-.26.36-.67.61-.74a15.18,15.18,0,0,1,3.48-.77c6.69-.22,13.38-.36,20.08-.5,2.24-.05,4.47,0,6.71,0a7.54,7.54,0,0,0,1.24-.24c1.9-.16,3.8-.45,5.69-.44,2.34,0,4.68.42,7,.43q30.8.17,61.59.22a19.72,19.72,0,0,0,6-.78,33.46,33.46,0,0,0,5.38-2.78c.72-.48,1.48-.91,2.16-1.45C432.34,147,433.68,145.9,435,144.77Z" transform="translate(-0.37 -0.27)"/><path class="cls-10" d="M343.12,152.93a7.54,7.54,0,0,1-1.24.24c-2.24,0-4.47,0-6.71,0-6.7.14-13.39.28-20.08.5a15.18,15.18,0,0,0-3.48.77c-.25.07-.41.48-.61.74.25.12.51.35.77.36,2.5.11,5,.11,7.52.28,3.56.24,7.11.6,10.67.9.36,0,.72,0,1.08,0,4.63,0,9.27-.06,13.91,0a32,32,0,0,1,4.41.69c-.1.07-.19.19-.29.19q-5-.06-10.05-.15c-.4,0-.79,0-1.19,0H313.47q-62.73-.12-125.47-.22c-18.46,0-36.93.13-55.4.23-8.39,0-16.77.15-25.16.22l.38-1.08a38.81,38.81,0,0,0,5.94.54c3.59-.21,7.17-.72,10.75-1.15a9.73,9.73,0,0,0,3.11-.7,3.28,3.28,0,0,1,2.49-.21,20.15,20.15,0,0,0,4.21.65c2.14.06,4.29-.09,6.44-.22a2.85,2.85,0,0,0,1.55-.49,1.68,1.68,0,0,0,.57-1.29c0-.32-.63-.62-1-.8s-.86-.14-1.27-.28a4.27,4.27,0,0,0-3.15,1H136c-.11-.15-.21-.42-.33-.43-1.81-.2-3.61-.73-5.43,0h-.72c-.46-.82-1.07-.55-1.68-.24h-.48c-.11-.15-.2-.41-.33-.43a47.69,47.69,0,0,0-4.89-.74c-1.8-.13-3.61,0-5.41-.06-.38,0-.75-.45-1.13-.69,2,0,3.89,0,5.84,0,3.11.06,6.22.16,9.33.23,3.74.09,7.49.22,11.24.24q32.63.15,65.23.26c5.15,0,10.3.16,15.45.22q11.81.15,23.6.24c14.23.1,28.45.15,42.68.25,6.27,0,12.54.18,18.8.22,1.91,0,3.82-.21,5.73-.2,2.69,0,5.39.19,8.08.21,5.28,0,10.55,0,15.83,0,1.27,0,2.54-.21,3.81-.19A8.55,8.55,0,0,1,343.12,152.93Z" transform="translate(-0.37 -0.27)"/><path class="cls-4" d="M70.72,157.73c-12.63,0-25.25,0-37.87,0-3.87,0-7.73-.13-11.6-.23-2.07-.05-4.14-.15-6.2-.23-.92-2.14-.74-3,1-4.69,1-1.07,2.08-2.15,3.12-3.22a14.13,14.13,0,0,0,5.39-.76c3.3-1.16,5.68-3.6,8.28-5.73l4.8-.24c1.61,1.68,3,3.67,4.87,5,4.67,3.28,9.54,2.24,14.17-.22,2.88-1.52,4.71-4.2,6.4-6.92l3.59-.48c-.28,3.79,2.74,7.81,6.44,8.88a18.19,18.19,0,0,0,13.49-1.44c0,1.17.35,2.61-.19,3.44a22.47,22.47,0,0,1-3.72,3.63.31.31,0,0,1-.22.09c-1.6-.45-2.86.24-4.05,1.19-.08.07-.23,0-.35.06-2,.31-4.08.58-6.1,1C71.48,156.89,71.12,157.41,70.72,157.73Z" transform="translate(-0.37 -0.27)"/><path class="cls-14" d="M70.72,157.73c.4-.32.76-.84,1.21-.92,2-.39,4.06-.66,6.1-1,.12,0,.27,0,.35-.06,1.19-.95,2.45-1.64,4.05-1.19a.31.31,0,0,0,.22-.09,22.47,22.47,0,0,0,3.72-3.63c.54-.83.16-2.27.19-3.44a12.41,12.41,0,0,0,1.3-1.21c1.75-2.22,3.46-4.48,5.18-6.72h0l.24-.24h0l.24-.24h0l.25-.24a43.6,43.6,0,0,0,7.11-7.13l-2.56-1.51c.75-.41,1.48-.87,2.25-1.21a1.48,1.48,0,0,1,2.11.66,3.12,3.12,0,0,0,1.89.95,6.17,6.17,0,0,0,1.88-.21c1,0,1.18-.64,1.46-1.37.12-.33.55-.53.84-.79l0,.51,0,.26-.24.5a2.16,2.16,0,0,0,2.68,1.14,13.06,13.06,0,0,0,1.87-.67l1.19.21c.78-.39,1.57-1.12,2.33-1.1s1.5.82,2.36,1.35l.38-3.52a5.86,5.86,0,0,0-.72.29c-1.85,1.14-1.84,1.13-3.66-.15-.15-.11-.55.13-.83.21l-.79.06-.06-.4A2.25,2.25,0,0,1,116,125.7c2.46.47,5,1.22,7.44-.22.46-.27,1.28.1,1.93.18a5.51,5.51,0,0,0,1.19.14,30.85,30.85,0,0,1,3.41-.43c2.42.06,4.83.36,7.25.43,2.62.08,5.24-.11,7.85.08a15.92,15.92,0,0,1,3.71,1.21c-1,1-.47,2.27-.3,3.39,0,.21,1.15.26,1.77.39.2,0,.42.17.57.11a10.59,10.59,0,0,0,1.1-.6,13.13,13.13,0,0,0,2.56.93,45.22,45.22,0,0,0,5.45.49c4.58.13,9.17.19,13.76.25,2.32,0,4.63,0,6.95,0,.37,0,.73.05,1.09.07v.34c-.4,0-.81.07-1.21.07q-12-.24-24.07-.47c-1.11,0-2.22.24-3.33.22-5.93-.13-11.87-.33-17.81-.46-2.67-.06-5.35,0-8,0-6.84,0-13.67,0-20.51,0a5,5,0,0,0-1.69.69,10.87,10.87,0,0,0-2.66.93c-2.72,1.86-4.13,4.73-5.19,7.7a7.26,7.26,0,0,0-.08,4,8,8,0,0,0,7.82,5.87c3.55,0,7.11,0,10.67,0,.38.24.75.67,1.13.69,1.8.07,3.61-.07,5.41.06a47.69,47.69,0,0,1,4.89.74c.13,0,.22.28.33.43h-1.64a6.39,6.39,0,0,0,2.1.45,22.17,22.17,0,0,0,2.42-.21c1.82-.68,3.62-.15,5.43,0,.12,0,.22.28.33.43h-2.1V154l6.84-.31,0-.32-3.29.31a4.27,4.27,0,0,1,3.15-1c.41.14.88.1,1.27.28s1,.48,1,.8a1.68,1.68,0,0,1-.57,1.29,2.85,2.85,0,0,1-1.55.49c-2.15.13-4.3.28-6.44.22a20.15,20.15,0,0,1-4.21-.65,3.28,3.28,0,0,0-2.49.21,9.73,9.73,0,0,1-3.11.7c-3.58.43-7.16.94-10.75,1.15a38.81,38.81,0,0,1-5.94-.54l-.38,1.08Zm56.16-28.06-2.5.14a2.72,2.72,0,0,1-1.17,0,2,2,0,0,1-1.08-.95,1.15,1.15,0,0,1,1-1.52,4.16,4.16,0,0,1,1.64.1,13.65,13.65,0,0,1,1.65.5c-.8-1.44-3.84-2.06-4.7-.91a4.09,4.09,0,0,0-.6,2.75c.12,1,1.2,1.08,2,1,1.26-.13,2.51-.37,3.76-.57h5.15c-.21-.45-.53-1.17-.85-1.88-.09-.18-.18-.36-.28-.53-.77-1.26-1.86-1.33-2.75-.14C127.7,128.31,127.31,129,126.88,129.67Zm10.56.47c1.43.28,2.84.66,4.28.84a8.91,8.91,0,0,0,5.68-.89l-2.2-.38,0-.15,2.31-.59,0-.43-2.4-.48,2.44-.81c-1.29-.26-2.5-.12-3.66-.3a10.59,10.59,0,0,0-6.2.58c-1.54-.63-.52,1.21-1.52,1.33-.36-.4-.83-.92-1.31-1.43-.87-.93-2.05-.71-2.31.55a10.59,10.59,0,0,0,.07,2.57l.46,0,1.09-2.23,1.73,2C136.49,131,137,131,137.44,130.14Zm-21.33,22.12v.22h5.43v-.22Zm15.15,1.2v.12h1.59v-.12Zm-7.27-.71.05.18.69-.06v-.12Zm-1.46-.23,0,.17.49-.08,0-.14Z" transform="translate(-0.37 -0.27)"/><path class="cls-11" d="M19.13,149.35c-1,1.07-2.07,2.15-3.12,3.22-1.7,1.71-1.88,2.55-1,4.69a13.72,13.72,0,0,1-9.35-2.68,5.13,5.13,0,0,1-2.48-4.43,12.84,12.84,0,0,0-.42-2.33c-.42-2.78.66-5.26,1.74-7.68a35.73,35.73,0,0,1,10.11-12.86,12.36,12.36,0,0,1,2.07-1.79,12.57,12.57,0,0,1,3.45-1.07c.83-.13,1.43-.21,1.69-1.14a2.11,2.11,0,0,1,2-1.51c7.27-.81,14.52-2,21.88-1.48,2.38.15,4.78.24,7.16.23,2.83,0,5.66-.14,8.49-.22h2.16c.19.16.37.45.56.45a29.22,29.22,0,0,0,3,0c.19,0,.37-.29.56-.45h.48c.4.76.8.77,1.2,0l1.45.71a10.25,10.25,0,0,1-1.93.47c-1.44.07-2.88-.07-4.31,0-1.6.13-3.18.46-4.91.73a4.77,4.77,0,0,0,.39.83c.93,1.21.83,1.58-.49,2.36a5.68,5.68,0,0,1-3.58.53,41.7,41.7,0,0,0-5.91-.2c-2.9.19-5.16,2-7.51,3.44-2.53,1.58-5.16,2.85-8.24,2.84-.26-.29-.56-.55-.79-.86a10.49,10.49,0,0,0-8-4.61c-5.33-.3-9.92,1.44-13.08,5.95-1.69,2.41-3.31,5-2.81,8.15.22,1.43.27,3.12,1.07,4.2A11.31,11.31,0,0,0,19.13,149.35Z" transform="translate(-0.37 -0.27)"/><path class="cls-15" d="M75.82,100.35,78,101c-.5,1.6-1.45,2.24-2.77,1.68A3.26,3.26,0,0,0,70.74,104a6.69,6.69,0,0,1-1.45,1.23,4,4,0,0,0-1.72,2.88,1.28,1.28,0,0,1-.86.9,6.76,6.76,0,0,0-3.88,2.4c-.87,1-1.78,1.92-2.84,3a14.22,14.22,0,0,1,2,.44,6.62,6.62,0,0,1,1.28.85,3,3,0,0,1-2.5.75c-1.07,0-2.14,0-3.21,0L54.64,116a6.14,6.14,0,0,1,1-1.18c.56-.42,1.32-.61,1.83-1.07A119.72,119.72,0,0,0,70.88,100a7,7,0,0,1,1.52-1l-.75,1.3c.88,0,1.75,0,2.63,0C74.79,100.26,75.3,100.31,75.82,100.35Z" transform="translate(-0.37 -0.27)"/><path class="cls-16" d="M64.08,85.06q5.1-3.93,10.2-7.85a8.33,8.33,0,0,1,1-.61l.26.28c-1.22,1.2-2.36,2.49-3.67,3.58-3,2.49-6.29,4.67-9.1,7.37-7.11,6.82-14,13.85-21,20.82a17,17,0,0,0-4.39,6.61l-.61-.21c0-.5-.15-1.1.07-1.48a39.25,39.25,0,0,1,6.89-8.69c3-2.89,5.5-6.42,8.73-9C56.61,92.53,59.84,88.26,64.08,85.06Z" transform="translate(-0.37 -0.27)"/><path class="cls-17" d="M36.77,115.05l.61.21a4.27,4.27,0,0,0,1.27.47c5.08.12,10.16.19,15.24.28l.76,0h0l2.88.53c-2.55,1.3-5.3,1.15-8,1.14-4.16,0-8.31,0-12.47,0a2.78,2.78,0,0,1-2.61-1Z" transform="translate(-0.37 -0.27)"/><path class="cls-18" d="M452.05,117.17a23.21,23.21,0,0,0-1.82-2.45A15.8,15.8,0,0,0,448,113.1c-2-2.21-3.92-4.53-6.08-6.59a53.76,53.76,0,0,0-5.32-4l-1.54-.85,0,0c-.1-.12-.16-.28-.29-.35a38.72,38.72,0,0,0-16.58-5,58.6,58.6,0,0,0-7.26,0,28,28,0,0,0-18.87,10,19.87,19.87,0,0,0-4.28,9.71c-.18.79-.35,1.58-.53,2.37l-2-.5c-.11-.41-.22-.82-.34-1.24a15.75,15.75,0,0,1-.18-2.46,14.23,14.23,0,0,1,.54-2.28l.49-.72c.24-.56.47-1.12.71-1.67,1.69-2.21,3.39-4.42,5.07-6.64a2.3,2.3,0,0,0,.26-.52L399,97.45c.68-.17,1.38-.3,2-.51,2.17-.68,4.22-1.79,6.57-1.87.35,0,.7,0,1,0,1.73,0,2.05-.59,1.32-2.19C409.46,91,409,89,408.27,87.13a1.83,1.83,0,0,0-1.44-.89,19.72,19.72,0,0,0-3.41.41c-1.62.28-3.25.62-4.87.93a3,3,0,0,1,2.93-1.84c4.68,0,9.36,0,14,0a13.4,13.4,0,0,1,1.77.23c2.46.56,4.91,1.14,7.38,1.68A50.54,50.54,0,0,1,445,97c1.13.87,2.34,1.64,3.51,2.45,1.12,1.24,2.19,2.54,3.37,3.71a36.2,36.2,0,0,1,6.71,9.25c.81,1.58,1.78,3,3.6,3.58-1.58.11-3.17.15-4.75.34C455.62,116.52,453.84,116.88,452.05,117.17Z" transform="translate(-0.37 -0.27)"/><path class="cls-10" d="M34.24,132.06c3.08,0,5.71-1.26,8.24-2.84,2.35-1.48,4.61-3.25,7.51-3.44a41.7,41.7,0,0,1,5.91.2,5.68,5.68,0,0,0,3.58-.53c1.32-.78,1.42-1.15.49-2.36a4.77,4.77,0,0,1-.39-.83c1.73-.27,3.31-.6,4.91-.73,1.43-.12,2.87,0,4.31,0a10.25,10.25,0,0,0,1.93-.47c1.5-.68,3-.28,4.58-.21,1.08,0,2.14.21,3.21.21,11.24,0,22.48,0,33.71,0,10.47,0,20.94.14,31.41.24,3.87,0,7.74.16,11.61.24s7.5.21,11.25.23q31.89.15,63.79.25c4.43,0,8.86.2,13.29.23,15.07.1,30.14.15,45.2.25,5.51,0,11,.19,16.53.23q24,.15,48,.24c5,0,10,0,15,0,1.87,0,3.72.3,5.58.46a8.3,8.3,0,0,0,1.37.22q20.75,0,41.47,0a37.93,37.93,0,0,1,5.11.35c2.55.34,4.22,2.24,6.16,3.67a34,34,0,0,0,4.19,2.75,4.47,4.47,0,0,0,4.55,0,9.75,9.75,0,0,1,1.54-.57l.22.39c-.24.25-.48.51-.73.75-1.73,1.65-3.56,3.21-4,5.79a12,12,0,0,0,.75,6.43c.21.52.37,1.05.55,1.57-1.36,1.13-2.7,2.27-4.09,3.36-.68.54-1.44,1-2.16,1.45a6.81,6.81,0,0,1,.35-1.59,4.44,4.44,0,0,0,.17-4.35,45.43,45.43,0,0,0-3.3-5.35,10.65,10.65,0,0,0-8.56-4.29c-2.35,0-4.7.15-7.05.21-3.66.1-7.33.21-11,.24-13,.1-26,.22-39,.23-9.91,0-19.81-.13-29.72-.23-2.67,0-5.34-.14-8-.23-4.74-.15-9.47-.39-14.21-.46-8.43-.14-16.86-.17-25.29-.27-1.67,0-3.33-.16-5-.22-4.38-.17-8.76-.46-13.14-.46-11.63,0-23.25.14-34.88.2-4.2,0-8.4,0-12.59,0l-.09-1.13-5,.29,0,.39c.62-.06,1.23-.1,1.84-.18.8-.11,1.57-.19,2.07.63-3.37.16-6.75.36-10.13.48s-6.93.24-10.4.23q-15.81-.06-31.61-.23c-4.75,0-9.49-.21-14.23-.22-10.87,0-21.74,0-32.61,0-.71,0-1.41-.16-2.12-.17-3-.05-6-.05-9-.12a4.36,4.36,0,0,1-1.21-.42,5,5,0,0,1,1.69-.69c6.84,0,13.67,0,20.51,0,2.68,0,5.36,0,8,0,5.94.13,11.88.33,17.81.46,1.11,0,2.22-.23,3.33-.22q12,.21,24.07.47c.4,0,.81,0,1.21-.07v-.34c-.36,0-.72-.07-1.09-.07-2.32,0-4.63,0-6.95,0-4.59-.06-9.18-.12-13.76-.25a45.22,45.22,0,0,1-5.45-.49,13.13,13.13,0,0,1-2.56-.93c-.12-.13-.23-.36-.36-.38-2-.19-1.93-.18-2.2-2.16,0-.27-.38-.5-.58-.75a15.92,15.92,0,0,0-3.71-1.21c-2.61-.19-5.23,0-7.85-.08-2.42-.07-4.83-.37-7.25-.43a30.85,30.85,0,0,0-3.41.43,5.51,5.51,0,0,1-1.19-.14c-.65-.08-1.47-.45-1.93-.18-2.47,1.44-5,.69-7.44.22a2.25,2.25,0,0,0-2.79,1.16c-1.44-.1-2.89-.6-4.28.18a4.87,4.87,0,0,1-.79-.26c-.87-.47-1.22-.11-1.36.76-.35,2.11-1.19,2.46-3.22,1.39.28-1.92.23-2-1.62-2.4a11.61,11.61,0,0,0-1.53-.25c-2.35-.16-2.69.13-3,2.45-.11.78.07,1.35,1,1.41l2.56,1.51a43.6,43.6,0,0,1-7.11,7.13l-.25.24h0l-.24.24h0l-.24.24h0c-.94.05-.71-.66-.71-1.17,0-2.3,0-4.65-1.5-6.57a9,9,0,0,0-4.25-3.29,2.52,2.52,0,0,0,.67,1.26,12.8,12.8,0,0,1,3.28,5.73,6.1,6.1,0,0,1-.17,4.41,9,9,0,0,1-1.38,1.8c.16-.57.32-1.14.49-1.7.4-1.32.2-1.86-1.07-2.29-1.94-.64-3.9-1.2-5.86-1.79-.31-.24-.59-.63-.93-.68-1.59-.23-1.74-.37-1.7-1.94a6.1,6.1,0,0,0-.17-1l-1.12,1c-4.88,2.06-8.24,4.77-7.91,10.82-1.39-.68-2.57-3.47-2.37-5.27a10.89,10.89,0,0,1,4.81-7.88c1.28-.92,2.52-1.87,3.78-2.81l-.11-.27-1.75.49A9.86,9.86,0,0,0,70,132.24c-1.71,2.31-3.35,4.68-3.33,7.75l-3.59.48a9.63,9.63,0,0,0,.21-1.29,20.94,20.94,0,0,0,.08-4.74c-.9-4.71-5.74-7.57-9.9-7.86-5.55-.37-9.81,2.29-13.19,6.47a13.12,13.12,0,0,0-2.64,9.57l-4.8.24C34.26,139.39,35.36,135.87,34.24,132.06ZM422,129.39l.94.05.63,2.26.44-.07a2.65,2.65,0,0,1,.21-.85c.27-.46.62-.87.93-1.3a8.24,8.24,0,0,1,1.27,1,6.57,6.57,0,0,1,.71,1.35c.43-1.89.18-2.36-1.29-2.86-.71-.24-1.41-.5-2.11-.75-.3-1.14-.88-1.29-1.92-.49l-2.08,3.92.38.29a4.69,4.69,0,0,0,1-.85A13.36,13.36,0,0,0,422,129.39ZM399.28,129c-3-.09-6-.22-9-.25-.59,0-1.51.14-1.72.51a2,2,0,0,0,.65,2.67,4.09,4.09,0,0,0,.33-1c0-.63,0-1.23.82-1.33s.92.55,1.13,1.12a7,7,0,0,0,.63,1,8.69,8.69,0,0,1,.48-1.17,9.84,9.84,0,0,1,.78-1.05c.34.27.69.52,1,.81.1.09.08.3.13.45.58,1.63,1.38,2,3,1.53.72-.22,1.43-.51,2.14-.76.72-.07,1.95,1.07,1.9-.8,0-.6,0-1.16.8-1.23s1,.38,1.22,1a5.84,5.84,0,0,0,.77,1.31c.62-2.29.55-2.42-1.38-3.14-.34-.12-.66-.3-1-.44C400.75,127.65,400.22,127.79,399.28,129Zm-329.54-.3c.21-.24.42-.47.61-.72,1.29-1.7,1.33-3.08.16-4.41a3.75,3.75,0,0,0-4.86-.72c-.55.32-1.05.71-1.57,1.08-1.81,1.29-2,2.24-.79,4.08a7.79,7.79,0,0,0,.67,2.33c.18.29,1.12.08,1.72.09h.12a2.6,2.6,0,0,0,3.33-.25C70,129.93,69.7,129.22,69.74,128.65ZM416,131.81l.44-.06a5.35,5.35,0,0,0,.17-.87c0-.55-.16-1.17.67-1.3s.93.54,1.17,1.08a10.25,10.25,0,0,0,.78,1.27c.42-2.57-.06-3.19-2.11-3.22-1,0-2.07,0-3.11,0-1.74,0-2.05.53-1.31,2.14.14.3.33.58.69,1.19a6.78,6.78,0,0,1,.28-1.57,1.7,1.7,0,0,1,.82-.92c.22-.06.7.39.89.71A9.32,9.32,0,0,1,416,131.81Zm-4.85-3c-1.7.7-2.62-.36-3.78-1.58a23.93,23.93,0,0,0,.34,3.25,1.52,1.52,0,0,0,1,1,20.51,20.51,0,0,0,3.06.2C411.19,130.81,409.69,130.22,411.11,128.83ZM210.8,132.27l0-.12H186.72v.12ZM95.51,129.42c-.85.41-1.73.77-2.53,1.25-.23.14-.25.64-.36,1a2.13,2.13,0,0,0,.85.09A13.42,13.42,0,0,0,95,131,1.06,1.06,0,0,0,95.51,129.42Zm337.37,4.66a2.8,2.8,0,0,0-3.06-2l-.16.31Z" transform="translate(-0.37 -0.27)"/><path class="cls-19" d="M294.64,94.86a36.62,36.62,0,0,1,12.82,1.73c.26,2,.65,4.17.83,6.4s.15,4.61.29,6.92c.07,1.18.3,2.36.48,3.53.43,2.76-.36,4.28-3,5a24.32,24.32,0,0,1-5.85.9c-3.94,0-7.88-.39-11.81-.41-28.41-.12-56.82-.16-85.24-.29-3.52,0-7-.42-10.58-.65-3-.21-3.45-2-3.51-4.1-.1-3.25.24-6.51.39-9.77.08-1.7.26-3.41.24-5.12,0-2.62,1.95-4,4.34-4.07,2.08-.08,4.16,0,6.24,0Zm11.73,12,.06-.26a5,5,0,0,0-1-.23q-10.81-.24-21.64-.45c-3-.06-6-.17-9-.18l-50-.07-32.52,0H191l-.18.4c.27.2.53.54.81.57,1.43.12,2.87.22,4.3.22q25.92,0,51.84,0c13.07,0,26.15,0,39.23,0Q296.71,106.88,306.37,106.86Z" transform="translate(-0.37 -0.27)"/><path class="cls-20" d="M363.78,57.23c-.73-.13-1.55-.55-2.18-.35-4,1.2-8.12,2.42-11.29,5.38a54.51,54.51,0,0,0-6.24,6.66c-.85,1.12-.83,2.9-1.19,4.38-.19.79-.35,1.59-.53,2.38l-.9-.5c.92-2.49.54-3.08-2.09-3.48-1.69-.26-3.37-.62-5-1s-2.21-.12-2.57,1.65c-.15.73-.22,1.49-.33,2.23-.22.45-.45.89-.68,1.34,0-1-.33-2.19,0-3,2.57-5.78,5.43-11.39,10.4-15.57,5.63-4.74,11.94-8.1,19.31-9a92.87,92.87,0,0,1,12-.7,42.91,42.91,0,0,1,17.61,4.22,66.65,66.65,0,0,1,11.5,6.55A44.7,44.7,0,0,1,412,69.2a30.82,30.82,0,0,1,1.91,3.42,2.14,2.14,0,0,0,1.88,1.4c.65,0,1.53,0,1.51,1.12-3,.09-6.05.21-9.08.26-1.18,0-1.91.46-2,1.71l-1.14.24L404,75.69a10.06,10.06,0,0,0-.74-2c-5.71-9.39-14.39-14.36-24.88-16.49A42.57,42.57,0,0,0,363.78,57.23Z" transform="translate(-0.37 -0.27)"/><path class="cls-21" d="M304.08,23.56a2.21,2.21,0,0,1,.38.63c.23,1.29.39,1.41,1.7,1.07-1.22,3.16-2.46,6.31-3.63,9.49-.57,1.53-1,3.12-1.5,4.68l.31.13a6.71,6.71,0,0,0,.59-.84c1.11-2.3,2.21-4.6,3.28-6.92s1.93-4.36,2.89-6.54l1.84.46c-1,2.4-1.91,4.82-2.93,7.2-.76,1.75-1.66,3.45-2.44,5.2a2.16,2.16,0,0,0,.3,2.74c2.3-4.9,4.42-9.84,6.5-14.8.35-.82-.18-1.26-.89-1.53l.87-.61c.31.52.94,1.1.87,1.57-.18,1.09,0,1.59,1.18,1.47a12,12,0,0,1-.48,1.58c-1.46,3.13-3,6.23-4.41,9.39a26.92,26.92,0,0,0-1.09,3.61l-1.29,1.05c-6.64-1.1-13.26-2.26-19.91-3.29-3.61-.56-7.25-.94-10.89-1.31-1.68-.17-1.69-.07-1.37-1.72a1.51,1.51,0,0,1,.09-.18,7.08,7.08,0,0,0,1.09-1.83c.94-4,1.79-8.12,2.65-12.19a2,2,0,0,0-.68-2.24c.29,0,.7-.17.85,0a1.91,1.91,0,0,0,2.79.09c.7-.54,1.19-.42,1.16.6-1-.09-1.39.55-1.58,1.32-1.14,4.56-2.27,9.12-3.35,13.69-.07.29.23,1,.34.95a2.57,2.57,0,0,0,1.22-.41c.17-.12.2-.5.25-.77.21-1.09.37-2.2.61-3.29.85-3.68,1.72-7.36,2.58-11a13.65,13.65,0,0,1,1.86-.79,3,3,0,0,1,1.73-.05c.32.12.45.8.62,1.25,0,.05-.26.22-.4.34-.31-.25-.6-.63-.93-.68s-.51.48-.67.79a3.89,3.89,0,0,0-.24.92c-1.11,4.27-2.23,8.54-3.3,12.82-.1.43.07,1.3.31,1.38.86.29.85-.52,1-1.08.74-2.65,1.53-5.28,2.21-7.94.46-1.79.75-3.62,1.14-5.42,0-.06.29-.06.44-.09l1.46,1.21A12.93,12.93,0,0,1,287,25c-1,3.67-2.11,7.34-3.12,11-.09.33.2.77.31,1.17.28-.2.73-.35.81-.61q2.12-6.76,4.15-13.58a3.78,3.78,0,0,0-.09-1.28h-.35c-.49.56-1,1.13-1.46,1.7l.77-3.12.48-.14c.44.48,1.16.91,1.26,1.45a1.72,1.72,0,0,0,1.55,1.53,10.73,10.73,0,0,1-.28,1.52c-.82,2.54-1.73,5.05-2.5,7.61-.56,1.84-1,3.73-1.43,5.59l.39.2c.22-.21.55-.39.63-.64,1.56-4.82,3.08-9.65,4.62-14.47.24-.74,0-1.15-.75-1.28l.35-1a9.59,9.59,0,0,0,1.68.94,3.08,3.08,0,0,0,1.59.11c1-.25,1.37.17,1.43,1.12s.44,1.77,1.66,1.68c-.82,2.28-1.61,4.58-2.44,6.86-.72,2-1.47,4-2.23,5.92-.18.47-.65,1,.11,1.27.27.09.77-.42,1.12-.7.14-.11.18-.35.25-.54,1.22-3.32,2.43-6.66,3.68-10,.31-.83.76-1.61,1.15-2.41l1.47,1.25c-.72,1.94-1.43,3.88-2.16,5.81s-1.54,4-2.25,6c-.1.29.21.72.33,1.09a5.35,5.35,0,0,0,1-.62,2.41,2.41,0,0,0,.34-.76c1.23-3.18,2.52-6.35,3.69-9.56C303.29,26.7,303.64,25.12,304.08,23.56Zm-7.42-.1-.5-.81c-.26.25-.65.45-.76.75-1.61,4.41-3.2,8.84-4.74,13.28-.13.37.12.86.2,1.29.4-.28,1-.49,1.17-.87,1.41-3.85,2.75-7.73,4.09-11.61C296.33,24.89,296.45,24.26,296.66,23.46Z" transform="translate(-0.37 -0.27)"/><path class="cls-22" d="M158.56,52.57a5.53,5.53,0,0,1,3.85-3.46,190.87,190.87,0,0,1,24-6.52c3.69-.68,7.33-1.57,11-2.27,2.31-.44,4.65-.72,7-1.07a5.41,5.41,0,0,1,1.2-.07,5.6,5.6,0,0,0,3.94-.69,6.13,6.13,0,0,1,2.33-.38c3.12-.43,6.23-1,9.36-1.27,2.37-.21,4.77,0,7.15-.1,1.46-.05,2.91-.29,4.36-.45l.24.28.24.22h0l-.25,1.08c-2.18.19-4.37.34-6.54.61a11.7,11.7,0,0,0-2,.75c-.72.25-1.59.81-2.17.6-3.42-1.23-6.77-.51-10.13.1-.51.09-1,.18-1.53.25-1.14.17-2.45.07-2.13,2,0,.28-1,1-1.58,1a2.15,2.15,0,0,1-1.65-1c-.79-1.53-.69-1.5-2.41-1.14-2.67.55-5.39.92-8.06,1.49a11.71,11.71,0,0,0-2.24,1.17c-.71.34-1.58,1-2.18.83-2.76-.79-5.34-.14-7.94.63a42.07,42.07,0,0,1-4.24,1.13c-.89.17-.83.55-.53,1.13s.89,1.35-.18,1.76c-1.7.65-2.24.79-3-.28-1-1.49-1-1.48-2.75-.92-2.56.82-5.15,1.57-7.7,2.44a3.79,3.79,0,0,0-1.7,1.19C161.16,53.16,160.33,53.42,158.56,52.57Z" transform="translate(-0.37 -0.27)"/><path class="cls-20" d="M294.64,94.86H200.32l1.45-1.71c2.14.15,4.28.41,6.42.42q23,0,46.05,0,18.17,0,36.34-.06c1.35,0,2.71.15,4.06.22Z" transform="translate(-0.37 -0.27)"/><path class="cls-23" d="M398.55,87.58c1.62-.31,3.25-.65,4.87-.93a19.72,19.72,0,0,1,3.41-.41,1.83,1.83,0,0,1,1.44.89C409,89,409.46,91,410,92.91a1.6,1.6,0,0,0-.35.28c-.24.31-.46.64-.68,1-.22-.33-.46-.65-.66-1-.29-.51-.56-1-.85-1.58-.77,1,1.44,2.38-.57,2.9l.74.59c-2.35.08-4.4,1.19-6.57,1.87-.67.21-1.37.34-2,.51L394.49,91l0,0L394,89.85a3.17,3.17,0,0,1,2.28-1.22A8.29,8.29,0,0,0,398.55,87.58Z" transform="translate(-0.37 -0.27)"/><path class="cls-24" d="M394,89.85l.47,1.16-.05.12.07-.1L399,97.45l-7.19,4.89c-.51-.89-1.39-.72-2.2-.74q-2.26-1.34-4.52-2.68c-.16-.25-.25-.59-.47-.74-.54-.36-1.14-.62-1.72-.93.61-.58,1.26-1.12,1.82-1.74,2.28-2.53,5.31-4,8.2-5.6C393.23,89.75,393.65,89.86,394,89.85Z" transform="translate(-0.37 -0.27)"/><path class="cls-25" d="M76,76.69l-.42.19-.26-.28a11.66,11.66,0,0,1,1.94-2.33c7.87-5.4,15.7-10.87,23.74-16,4-2.53,8.32-4.42,12.51-6.58,1.87-1,3.76-1.88,5.65-2.81,4.43-2.18,8.81-4.49,13.31-6.5,3.3-1.46,6.8-2.5,10.18-3.79,2.75-1,5.4-2.39,8.2-3.24,4.22-1.28,8.54-2.24,12.81-3.33a8.48,8.48,0,0,1-1.93,1.18c-2.6.71-5.23,1.26-7.84,1.94a15.69,15.69,0,0,0-1.84.82c-2.85,1.13-5.66,2.44-8.6,3.28-1.53.43-2.95,1.05-4.43,1.53-5.58,1.81-10.47,5.15-16,7a28.73,28.73,0,0,0-2.63,1.59,232.56,232.56,0,0,0-31.43,18c-3.4,2.28-6.69,4.74-10,7.12C77.41,74.55,76.79,75.76,76,76.69Z" transform="translate(-0.37 -0.27)"/><path class="cls-23" d="M382.94,97.25c.58.31,1.18.57,1.72.93.22.15.31.49.47.74-.06.06-.16.13-.15.17.39,1.42,3,3.17,4.46,3,.09,0,.14-.29.21-.44.81,0,1.69-.15,2.2.74a2.3,2.3,0,0,1-.26.52c-1.68,2.22-3.38,4.43-5.07,6.64l-.93,0c-.21-.34-.34-.83-.65-1a17.59,17.59,0,0,0-8-2.59c.82-1.43,1.63-2.87,2.44-4.3.49.27,1,.53,1.45.81,2.35,1.33,4.61,2.92,7.86,2.59-1.64-.89-3-1.66-4.35-2.35s-2.85-1.36-4.28-2Z" transform="translate(-0.37 -0.27)"/><path class="cls-22" d="M119.4,67.65a35,35,0,0,1,3.45-2.29,95.89,95.89,0,0,1,10.72-5c3.42-1.21,6.22-3.55,9.64-4.66.94-.31,1.92-.53,2.88-.79-.18,1.17.46,1.58,1.49,1.62a3.57,3.57,0,0,0,.33.68c.42.49,1.2.82.51,1.66a2.18,2.18,0,0,1-2.74.75,2.4,2.4,0,0,1-.53-.48c-1.18-1.37-1.4-1.44-3-.69-2.46,1.1-4.9,2.24-7.35,3.35-.57.26-1,.5-1,1.29s-1.64,1.55-2.47,1.27a3.6,3.6,0,0,0-3,.46l-7.44,4a1.56,1.56,0,0,1-.44.08l-.31.3a.58.58,0,0,1-.19,0l-1.06-1h0C119.07,68,119.24,67.83,119.4,67.65Z" transform="translate(-0.37 -0.27)"/><path class="cls-26" d="M274,36.27c-.32,1.65-.31,1.55,1.37,1.72,3.64.37,7.28.75,10.89,1.31,6.65,1,13.27,2.19,19.91,3.29a3,3,0,0,1,.53.47c.18.27.49.64.41.86a1.51,1.51,0,0,1-.8.75,1.92,1.92,0,0,1-1.06,0,243.82,243.82,0,0,0-25.91-4.29c-2.72-.31-5.48-.53-8-1.85.41-.36.8-.72,1.21-1.07S273.49,36.65,274,36.27Z" transform="translate(-0.37 -0.27)"/><path class="cls-15" d="M118.91,68.17l1.06,1a6.9,6.9,0,0,0,1,.72c1,.48,1.17,1.24.26,2a2.25,2.25,0,0,1-2.75-.18c-1.41-1.2-1.94-1.14-3.44-.06A30.73,30.73,0,0,1,111,74.12c-1.44.72-2.66,1.52-3.13,3.22a1.71,1.71,0,0,1-1.33.93,9.58,9.58,0,0,0-5.82,2.22c-1.39,1-2.84,1.91-4.27,2.86a3.69,3.69,0,0,1-.58-.53,5.92,5.92,0,0,1-.4-.93c4.61-3,9.22-6,13.85-8.91,2.12-1.35,4.26-2.66,6.47-3.84A15.67,15.67,0,0,1,118.91,68.17Z" transform="translate(-0.37 -0.27)"/><path class="cls-26" d="M277.11,19.83a2,2,0,0,1,.68,2.24c-.86,4.07-1.71,8.14-2.65,12.19a7.08,7.08,0,0,1-1.09,1.83l-.54-1c-.11-3.48,1.28-6.66,2-10,.19-.89.34-1.79.48-2.68.21-1.39,0-1.68-1.38-1.91a7.84,7.84,0,0,0-1.19-.06l-44.7,0a15.08,15.08,0,0,0-3.82.61,29.77,29.77,0,0,1-5.77.49,15.54,15.54,0,0,1-1.67-.06c.92-.17,1.84-.37,2.77-.51,1.92-.3,3.83-.58,5.75-.86a9.74,9.74,0,0,1,1.42-.13c7.12,0,14.23,0,21.34,0,8.62,0,17.24-.12,25.87-.17C275.44,19.77,276.27,19.81,277.11,19.83Z" transform="translate(-0.37 -0.27)"/><path class="cls-27" d="M363.78,57.23a42.57,42.57,0,0,1,14.55,0c10.49,2.13,19.17,7.1,24.88,16.49a9.45,9.45,0,0,1,.73,2l-.79-.06C395,59.88,372.64,52.49,355.83,61.7l-.23-1.13c1.8-.79,3.59-1.59,5.4-2.35C361.91,57.84,362.85,57.56,363.78,57.23Z" transform="translate(-0.37 -0.27)"/><path class="cls-13" d="M324.44,115c-2.07,0-3.74-.36-4.68-2.15a3.66,3.66,0,0,1,.66-4.31,4.38,4.38,0,0,1,4.52-1,9.24,9.24,0,0,1,2.58,2,3.29,3.29,0,0,1,.39,3.81A3.2,3.2,0,0,1,324.44,115Z" transform="translate(-0.37 -0.27)"/><path class="cls-16" d="M179.43,52.39v1a22.72,22.72,0,0,1,2.75.4,2.54,2.54,0,0,1-.15,4.77c-1.93.2-3.89.19-5.84.25a11,11,0,0,1-2.15,0c-.33-.06-.6-.47-.9-.73.29-.25.57-.72.87-.73,1.87-.09,3.75-.07,5.62-.09.36,0,.78.09,1.06-.07a6,6,0,0,0,1.1-1c-.38-.32-.74-.88-1.14-.91-1.67-.13-3.35,0-5-.14-.73-.06-1.91-.32-2-.75a6.12,6.12,0,0,1,.08-3c.06-.29.92-.58,1.42-.58,2.43,0,4.86,0,7.29.13.4,0,.78.41,1.17.63-.41.27-.79.7-1.21.75A23.36,23.36,0,0,1,179.43,52.39Zm-.19-.06H177a3.66,3.66,0,0,0-.94,0,1.31,1.31,0,0,0-.68.49c-.08.12.1.59.19.59,1.19.1,2.39.14,3.64.2Z" transform="translate(-0.37 -0.27)"/><path class="cls-5" d="M95.43,81.89a5.92,5.92,0,0,0,.4.93,3.69,3.69,0,0,0,.58.53c0,.45.07.89.11,1.34a7.11,7.11,0,0,1-.79-.1,14.61,14.61,0,0,0-2.13-.5c-1.14-.09-.65,1-1,1.52a.86.86,0,0,1-.07.1l-2.64,2.21c-.16-.07-.4-.26-.48-.21-.85.61-1.69,1.24-2.5,1.9-.09.08,0,.36,0,.54l0,0c-.3,0-.7-.07-.89.08-1.36,1.14-3.16,1.8-4,3.56-.09.18-.48.22-.73.32L81.18,94l.09.11,0,.57-.23.15h-.51c-.84.45-1.91.68-1.89,2h0c-1.61-.27-2,1.4-3.45,1.81l1,.33-.44,1.4c-.52,0-1-.09-1.54-.1-.88,0-1.75,0-2.63,0l.75-1.3c1.4-1,2.86-1.86,4.19-2.92,3.25-2.57,6.45-5.2,9.65-7.83,1.48-1.22,2.83-2.61,4.4-3.69A48,48,0,0,1,95.43,81.89Z" transform="translate(-0.37 -0.27)"/><path class="cls-16" d="M270.32,49.7c-1,0-2,.06-3,0a2.63,2.63,0,0,1-2.69-3.18c.09-1.15.1-2.3.23-3.44a1.54,1.54,0,0,1,.59-.92,1.69,1.69,0,0,1,1-.3c2.23,0,4.47,0,6.69.22,1.55.13,2.12.83,2.3,2.41a16.22,16.22,0,0,1,.11,2.87c-.07,1.7-.68,2.26-2.37,2.32-1,0-1.92,0-2.88,0Zm3.34-2.42c0-.8-.4-1.17-1.32-1.18-1.43,0-2.86,0-4.3,0-.85,0-1.51.16-1.49,1.23s.8,1.14,1.57,1.16c1.38,0,2.75,0,4.13,0A1.18,1.18,0,0,0,273.66,47.28ZM271,45.05v.06l.84,0c.8,0,1.47-.12,1.47-1.12s-.59-1.28-1.5-1.25c-1.3,0-2.61,0-3.91,0-.76,0-1.37.22-1.37,1.13s.63,1.12,1.37,1.14C269,45.06,270,45.05,271,45.05Z" transform="translate(-0.37 -0.27)"/><path class="cls-16" d="M208.49,46.9c.86.06,1.73.17,2.59.19,1.67,0,2.54.72,2.64,2.14a2.27,2.27,0,0,1-2.36,2.66,51.17,51.17,0,0,1-5.94,0c-1.82-.13-2.56-1.16-2.44-3,.05-.83.12-1.67.2-2.5a2.16,2.16,0,0,1,1.95-2.11c2.3-.18,4.62-.17,6.93-.15.33,0,.65.51,1,.78-.36.25-.7.67-1.08.71-1.15.12-2.31.08-3.47.11a14.1,14.1,0,0,0-2.33-.15,1.12,1.12,0,0,0-.74.82,1.14,1.14,0,0,0,.78.8A14,14,0,0,0,208.49,46.9Zm1.67,3.88c1.14.06,1.56-.38,1.52-1.43s-.83-1.05-1.62-1c-1.23,0-2.46,0-3.69,0-.81,0-1.44.31-1.45,1.22s.58,1.24,1.41,1.24Z" transform="translate(-0.37 -0.27)"/><path class="cls-16" d="M303.09,53.7c-1.16,0-2.32,0-3.48,0-.33,0-.63-.4-.95-.62.32-.22.63-.62.95-.63,1.8-.06,3.6,0,5.4,0a2.64,2.64,0,0,0,1.06-.06,3.69,3.69,0,0,0,.86-.82c-.3-.24-.58-.67-.9-.7-1.15-.11-2.31-.08-3.47-.12a23.75,23.75,0,0,1-2.39-.11c-1.63-.2-2.27-1-2.22-2.68,0-1.39.73-2.12,2.31-2.18,1.79-.08,3.6-.09,5.39,0,2,.1,3,1.09,3.2,3.17a19.08,19.08,0,0,1,.14,2.27c0,1.68-.64,2.3-2.31,2.42-1.19.09-2.39.12-3.59.17ZM302,46.88v0h-.36c-1.26,0-1.7.39-1.68,1.46s.81,1.19,1.66,1.18c1.18,0,2.37-.07,3.55,0,.88,0,1.62,0,1.74-1.11s-.46-1.45-1.58-1.47S303.07,46.88,302,46.88Z" transform="translate(-0.37 -0.27)"/><path class="cls-6" d="M421.13,117.18l-.07.47a8,8,0,0,1-6.43,0c-.44-2.7-.89-5.4-1.32-8.11-.15-1,.22-1.57,1.28-1.52,1.61.08,3.23.2,4.84.3a8.84,8.84,0,0,0,.3,1.28c.39,1,.84,2,1.27,3C419.56,113.32,419.54,115.79,421.13,117.18Zm-4.83-8.34h-.59c-1.4,0-1.84.49-1.31,1.82a2.32,2.32,0,0,0,1.41,1.34,8.84,8.84,0,0,0,2.86-.38c.14,0,.24-.47.27-.74C419.11,109.32,418.32,108.71,416.3,108.84Z" transform="translate(-0.37 -0.27)"/><path class="cls-15" d="M104.58,93.49c-1.28,0-2.56-.06-3.83,0-.94.06-1.31-.35-1.37-1.22A2.85,2.85,0,0,1,102.05,89c1.59-.19,3.19-.23,4.78-.34.28,0,.63.07.83-.06a6.83,6.83,0,0,0,1-1c-.33-.26-.65-.74-1-.76-1.75-.1-3.51-.09-5.27-.11a2.26,2.26,0,0,1-.83,0c-.24-.11-.55-.4-.55-.61a.82.82,0,0,1,.55-.59c2.63,0,5.27.06,7.89.29,1,.09,1.2,1.16,1.16,2.09s-.46,1.84-1.56,2c-1.86.22-3.73.34-5.6.5-.28,0-.63-.09-.82,0a6.36,6.36,0,0,0-1,1c.37.27.72.76,1.1.77,1.87.08,3.74,0,5.61,0a4,4,0,0,1,1.35.62,4.67,4.67,0,0,1-1.43.68C107.06,93.55,105.82,93.49,104.58,93.49Z" transform="translate(-0.37 -0.27)"/><path class="cls-16" d="M387.82,116a19.87,19.87,0,0,1,4.28-9.71,28,28,0,0,1,18.87-10,58.6,58.6,0,0,1,7.26,0,6.75,6.75,0,0,0-.89.57c-.61.55-1.1,1.17-.55,2-.49.82-1,.68-1.35-.07-.84-1.66-1.12-1.84-3-1.67-6.85.6-12.93,3-17.83,7.94A23.25,23.25,0,0,0,388.71,116Z" transform="translate(-0.37 -0.27)"/><path class="cls-6" d="M76,116.78c-1.11,0-2.23,0-3.34,0a1.62,1.62,0,0,1-1.71-1.65,18.54,18.54,0,0,1,.37-4.35c.38-1.55,1.76-2.12,3.24-2.19a48.58,48.58,0,0,1,5.26,0c2,.11,2.6.83,2.45,2.84a18.94,18.94,0,0,1-.44,2.46c-.54,2.44-1.31,3-3.79,3-.68,0-1.36,0-2,0Zm.89-1.35.1.33a13.45,13.45,0,0,0,2.79-1c.7-.45,1-3.5.44-4.21A1.74,1.74,0,0,0,79,109.9c-1.11-.07-2.22,0-3.33,0-2.71,0-3.41,1.28-3.21,4.13.09,1.31.84,1.79,2.15,1.63Z" transform="translate(-0.37 -0.27)"/><path class="cls-22" d="M123.55,75.15h5.26c.35,0,.81.06,1-.13a5.55,5.55,0,0,0,.89-1.22c-.37-.21-.73-.6-1.11-.61-1.55-.07-3.12,0-4.67-.06-.4,0-.78-.45-1.16-.69.37-.21.73-.61,1.11-.62,1.87,0,3.75,0,5.63,0,1.5.06,2,.61,2,2.09a22.58,22.58,0,0,1-.23,3.58,2.34,2.34,0,0,1-2.16,2.23c-2.5.11-5,0-7.5,0-.07-1,.45-1.28,1.18-1.28,1.84,0,3.68-.07,5.52,0,.93,0,1.07-.43,1.13-1.13s-.41-1-1.11-1c-1.48,0-3,0-4.44,0C124.33,76.32,123.56,76.31,123.55,75.15Zm.7,3.93v.12h4.56v-.12Z" transform="translate(-0.37 -0.27)"/><path class="cls-25" d="M233,36.57l-.24-.28a10.48,10.48,0,0,1,1.72-.29c2.67,0,5.34,0,8,0,6,0,12-.12,18-.16a21.1,21.1,0,0,1,2.23.24,1.32,1.32,0,0,1-1.63,1.15c-1.78-.19-3.55-.4-5.33-.44-2.79-.07-5.59,0-8.38,0h-6.25l.72.9a6.39,6.39,0,0,0-1,1.38c-.29.8-.72,1.34-1.59,1.31s-2.1.2-2.65-1c.1-.92.2-1.84.31-2.79-1.34-.35-2.56-.65-3.72.21h0Z" transform="translate(-0.37 -0.27)"/><path class="cls-22" d="M154.66,60.43l-.18,1.88c-.1.88-.14,1.71,1,1.94a1.31,1.31,0,0,1,0,1c-.48.52-1.15.86-1.64,1.38s-.79.6-1.22,0a3.06,3.06,0,0,0-3-1.16,29,29,0,0,1-4.27-.11c-.82-.07-.87-.72-.63-1.34a1.23,1.23,0,0,1,.57-.58c2.38-1.35,4.75-2.74,7.18-4C153.6,58.76,154.72,59.34,154.66,60.43Zm-6.7,3,.11.36c.65.11,1.3.24,2,.33,2.22.29,3-.8,2.2-3.12Z" transform="translate(-0.37 -0.27)"/><path class="cls-22" d="M400.19,117.27l1,.9c-.43.22-.87.64-1.3.64-1.56,0-3.11-.06-4.66-.19a2.5,2.5,0,0,1-2.39-2.3,35.48,35.48,0,0,1-.26-3.58,1.09,1.09,0,0,1,1.24-1.26c1.76,0,3.52,0,5.27,0,.4,0,.77.46,1.16.7-.38.24-.74.63-1.14.67-1,.1-2,0-3,.06-.46,0-1.22.38-1.25.65-.09.82.64.67,1.2.68,1.11,0,2.23,0,3.35.06.84,0,1.43.37,1,1.38H396c-.53,0-1.08,0-1.1.74s.46,1,1.08,1C397.41,117.38,398.8,117.32,400.19,117.27Z" transform="translate(-0.37 -0.27)"/><path class="cls-5" d="M247.36,36.8c2.79,0,5.59-.07,8.38,0,1.78,0,3.55.25,5.33.44a1.32,1.32,0,0,0,1.63-1.15c1.79.31,3.56.7,5.36.92a6.89,6.89,0,0,0,5.45-1.94l.54,1a1.51,1.51,0,0,0-.09.18c-.47.38-.95.76-1.42,1.16s-.8.71-1.21,1.07c-4.37-.24-8.75-.49-13.12-.7a2.63,2.63,0,0,0-1.42.38,2.51,2.51,0,0,1-2.9,0,4.15,4.15,0,0,0-1.77-.53c-1.58-.14-3.17-.19-4.76-.27Z" transform="translate(-0.37 -0.27)"/><path class="cls-22" d="M357.77,75.16c1,1,1,1.91-.27,2.28a11.21,11.21,0,0,1-6.71-.08c-.56-.19-1-1-1.35-1.56a3.32,3.32,0,0,1-.26-1.28c-.32-2.71.34-3.48,3.07-3.6a18.67,18.67,0,0,1,3,0,5.38,5.38,0,0,1,2.2.78c.72.47.81,1.16-.16,1.79-1.53-1.84-3.56-1.63-5.59-1.16a1.51,1.51,0,0,0-.92,1c-.38,1.82.28,2.76,2.1,3.15C355,76.9,355.69,76.73,357.77,75.16Z" transform="translate(-0.37 -0.27)"/><path class="cls-22" d="M235.18,48.77l5.37-6.24H236.5a23.32,23.32,0,0,1-2.51,0c-.29,0-.53-.44-.79-.68.28-.24.56-.69.84-.7q4.14-.07,8.28,0a1.71,1.71,0,0,1,1.13.68c.12.17-.12.78-.37,1-1.94,1.84-3.92,3.64-5.88,5.45A1.85,1.85,0,0,1,235.18,48.77Z" transform="translate(-0.37 -0.27)"/><path class="cls-5" d="M355.6,60.57l.23,1.13c-3.51,2.36-6.64,5.11-8.58,9-.74,1.47-1.27,3-1.81,4.38.56,1,2.36.15,1.91,1.85-.87-.65-1.75-1.07-2.82-.42-.09.06-.3,0-.45-.08a15,15,0,0,1,3.6-8.93,82.12,82.12,0,0,1,5.93-5.87A7.92,7.92,0,0,1,355.6,60.57Z" transform="translate(-0.37 -0.27)"/><path class="cls-5" d="M98.08,113.83c2.07-1.21,4.13-.72,6.2,0a4.24,4.24,0,0,0,1.49.4c1,0,2-.21,3-.32l.11-.41.36.93-.63.34-1.66,2.47c-.34-.47-.54-.7-.7-1-.74-1.26-1.11-1.34-1.88-.14a2.72,2.72,0,0,1-2.95,1.3c-1.2-.19-2.38-.55-3.57-.83Zm2.7,2.44c.93.13,1.65-.19,1.65-1.27,0-.91-.74-1-1.45-1-.93,0-1.52.29-1.53,1.35S100.07,116.3,100.78,116.27Z" transform="translate(-0.37 -0.27)"/><path class="cls-16" d="M393.72,75.18a3,3,0,0,0-.39,0c-1.54,0-1.5,0-1.54,1.54,0,.35-.36.68-.56,1-.29-.25-.77-.47-.84-.77a42.64,42.64,0,0,1-.66-4.37c0-.35.36-.75.56-1.13.27.28.66.51.79.85.57,1.44,1,1.73,2.5,1.67.83,0,1.66,0,2.49,0s1.05-.61,1-1.38a3.15,3.15,0,0,1,.36-1.07c.31.27.83.49.91.82a42.59,42.59,0,0,1,.86,4.45c0,.29-.39.7-.68.95a1.19,1.19,0,0,1-.73-.5c-.91-2.16-1.09-2.28-3.41-2.09Z" transform="translate(-0.37 -0.27)"/><path class="cls-16" d="M367.72,75.09c1.1-1.11,2.24-.75,3.37-.53,1.46.29,2.2-.38,2-1.87a27.28,27.28,0,0,1-.44-3,4.68,4.68,0,0,1,.61-1.62l1.22.66,1,.5,1,.47-.8,1,.94.36-1.68,1,.09.31,1.92.26c-1.42.34-2.07,1-1.52,2.55.08.21-.45.9-.74.93a2.76,2.76,0,0,1-1.67-.38,2.41,2.41,0,0,0-2-.3A12.58,12.58,0,0,1,367.72,75.09Z" transform="translate(-0.37 -0.27)"/><path class="cls-23" d="M385,116.63c.12.42.23.83.34,1.24a7.69,7.69,0,0,1-2.11.66c-2.31,0-4.61-.09-6.92-.13-2.91-.06-3.25-.59-2.17-3.38h1.5l-1.11.4,0,.3a23.37,23.37,0,0,0,3,.47c2.14.08,4.28,0,6.42,0Z" transform="translate(-0.37 -0.27)"/><path class="cls-17" d="M385,116.63l-1-.41c.08-.86-.06-1.39-1.14-1.51-2.87-.29-5.72-.73-8.58-1.11.45-1.52.89-3,1.34-4.57a37.23,37.23,0,0,0,4.1,1.69c1.86.52,3.79.79,5.69,1.17a14.23,14.23,0,0,0-.54,2.28A15.75,15.75,0,0,0,385,116.63Zm-9.86-5.37,0,.47c.49.34.94.89,1.47,1,2.29.43,4.6.76,6.91,1.07.29,0,.63-.28.94-.43-.28-.26-.53-.67-.85-.75-2.27-.54-4.56-1-6.85-1.48A6.19,6.19,0,0,0,375.1,111.26Z" transform="translate(-0.37 -0.27)"/><path class="cls-26" d="M307.42,41.54a26.92,26.92,0,0,1,1.09-3.61c1.41-3.16,2.95-6.26,4.41-9.39A12,12,0,0,0,313.4,27a4.68,4.68,0,0,1,.74-1.08c.25-.2.69-.16,1-.24.05.32.22.69.11.94-2,4.57-4,9.11-6.06,13.66A1.82,1.82,0,0,1,307.42,41.54Z" transform="translate(-0.37 -0.27)"/><path class="cls-26" d="M304.08,23.56c-.44,1.56-.79,3.14-1.34,4.65-1.17,3.21-2.46,6.38-3.69,9.56a2.41,2.41,0,0,1-.34.76,5.35,5.35,0,0,1-1,.62c-.12-.37-.43-.8-.33-1.09.71-2,1.5-4,2.25-6s1.44-3.87,2.16-5.81c.4-.86.78-1.73,1.2-2.58C303.32,23,303.68,22.8,304.08,23.56Z" transform="translate(-0.37 -0.27)"/><path class="cls-26" d="M282,20.92c-.86,3.69-1.73,7.37-2.58,11-.24,1.09-.4,2.2-.61,3.29-.05.27-.08.65-.25.77a2.57,2.57,0,0,1-1.22.41c-.11,0-.41-.66-.34-.95,1.08-4.57,2.21-9.13,3.35-13.69.19-.77.6-1.41,1.58-1.32C281.93,20.63,282,20.78,282,20.92Z" transform="translate(-0.37 -0.27)"/><path class="cls-26" d="M406.21,77.11c.09-1.25.82-1.69,2-1.71,3-.05,6.06-.17,9.08-.26,1.13,2.66.82,3.14-2,3.15h-6.32A3.09,3.09,0,0,1,406.21,77.11Zm1.52-.6,0,.45a7.5,7.5,0,0,0,1.06.14c2.31,0,4.63,0,6.94,0,.36,0,.72-.35,1.08-.54-.4-.21-.8-.61-1.2-.61-1.83,0-3.65.1-5.48.22C409.31,76.21,408.52,76.39,407.73,76.51Z" transform="translate(-0.37 -0.27)"/><path class="cls-26" d="M285.75,22.37c-.15,0-.43,0-.44.09-.39,1.8-.68,3.63-1.14,5.42-.68,2.66-1.47,5.29-2.21,7.94-.15.56-.14,1.37-1,1.08-.24-.08-.41-.95-.31-1.38,1.07-4.28,2.19-8.55,3.3-12.82a3.89,3.89,0,0,1,.24-.92c.16-.31.48-.82.67-.79s.62.43.93.68C285.78,21.9,285.76,22.13,285.75,22.37Z" transform="translate(-0.37 -0.27)"/><path class="cls-26" d="M310.48,24.53c.71.27,1.24.71.89,1.53-2.08,5-4.2,9.9-6.5,14.8a2.16,2.16,0,0,1-.3-2.74c.78-1.75,1.68-3.45,2.44-5.2,1-2.38,1.95-4.8,2.93-7.2Z" transform="translate(-0.37 -0.27)"/><path class="cls-6" d="M341.45,75.18l.9.5,0,.88a2.57,2.57,0,0,1-2.4,1c-2.18-.06-4.36,0-6.54-.11-.85,0-1.7-.22-2.55-.33-.05-.39-.1-.78-.14-1.17.23-.45.46-.89.68-1.34a8.1,8.1,0,0,0,1.5.34C335.76,75,338.61,75.1,341.45,75.18Zm-8.62,1.24v.12H340v-.12Z" transform="translate(-0.37 -0.27)"/><path class="cls-26" d="M300.35,25c-.39.8-.84,1.58-1.15,2.41-1.25,3.32-2.46,6.66-3.68,10-.07.19-.11.43-.25.54-.35.28-.85.79-1.12.7-.76-.24-.29-.8-.11-1.27.76-2,1.51-3.94,2.23-5.92.83-2.28,1.62-4.58,2.44-6.86a10.19,10.19,0,0,0,.42-1.12c.19-.84.68-1,1.52-.66Z" transform="translate(-0.37 -0.27)"/><path class="cls-16" d="M98.08,113.83l-.25,2.81c-.21.09-.43.27-.65.26-2.81-.07-5.62-.16-8.43-.25l.45-3.1c2.7-.25,5.41-.77,8.11,0A8,8,0,0,1,98.08,113.83Zm-2.44,2.62c1.14-.17,1.68-.59,1.68-1.45s-.7-.91-1.37-.93-1.41.38-1.33,1.16C94.67,115.67,95.28,116.05,95.64,116.45Zm-3.28-1.54c0-.71-.46-.85-1.14-.86s-1.45.12-1.53,1.07.49,1.08,1.21,1.08S92.32,116,92.36,114.91Z" transform="translate(-0.37 -0.27)"/><path class="cls-26" d="M287.26,23.4c.48-.57,1-1.14,1.46-1.7h.35a3.78,3.78,0,0,1,.09,1.28q-2,6.81-4.15,13.58c-.08.26-.53.41-.81.61-.11-.4-.4-.84-.31-1.17,1-3.68,2.08-7.35,3.12-11a12.93,12.93,0,0,0,.2-1.41A1.21,1.21,0,0,0,287.26,23.4Z" transform="translate(-0.37 -0.27)"/><path class="cls-26" d="M308.1,25.26c-1,2.18-1.9,4.37-2.89,6.54s-2.17,4.62-3.28,6.92a6.71,6.71,0,0,1-.59.84l-.31-.13c.49-1.56.93-3.15,1.5-4.68,1.17-3.18,2.41-6.33,3.63-9.49a2.64,2.64,0,0,1,.4-.57c.36-.29.75-.53,1.14-.8Z" transform="translate(-0.37 -0.27)"/><path class="cls-16" d="M421.13,117.18c-1.59-1.39-1.57-3.86-.13-4.59.28.63.61,1.24.83,1.88s.08,1.2.37,1.6.9.42,1.37.61c.13-.37.49-.85.37-1.09-1.16-2.33-1.44-5.07-3.3-7.06a2.73,2.73,0,0,1,2.92,2.38,42.46,42.46,0,0,0,1.26,4.07c.31.88.54,1.67-.28,2.39a2,2,0,0,1-2.53.11A5.06,5.06,0,0,0,421.13,117.18Z" transform="translate(-0.37 -0.27)"/><path class="cls-17" d="M310.71,85a4.25,4.25,0,0,1-.68-.8c-.17-.35-.1-.9-.34-1.11a2.48,2.48,0,0,0-1.48-.69c-.33,0-.74.57-.95,1s0,.8-.14,1.18a2.41,2.41,0,0,1-.53.69c-.19-.18-.45-.32-.56-.54a3.39,3.39,0,0,1-.3-1,1.37,1.37,0,0,0-1.53-1.34c-.89,0-1.13.55-1.27,1.29A12,12,0,0,1,302.5,85l-.4,0a17,17,0,0,1-.7-2.27,1.16,1.16,0,0,1,1.11-1.44c2.54-.05,5.09,0,7.63,0,.13,0,.26.16.4.24s.15.25.23.37l0,.07c.08.83.15,1.65.22,2.47l0,.05C310.9,84.75,310.8,84.88,310.71,85Z" transform="translate(-0.37 -0.27)"/><path class="cls-5" d="M416.79,98.94c-.55-.88-.06-1.5.55-2a6.75,6.75,0,0,1,.89-.57,38.72,38.72,0,0,1,16.58,5c.13.07.19.23.29.35l-1.52.18a41.38,41.38,0,0,0-13.3-4.42C418.63,97.13,417.48,97.35,416.79,98.94Z" transform="translate(-0.37 -0.27)"/><path class="cls-26" d="M292,21.65c.76.13,1,.54.75,1.28-1.54,4.82-3.06,9.65-4.62,14.47-.08.25-.41.43-.63.64l-.39-.2c.47-1.86.87-3.75,1.43-5.59.77-2.56,1.68-5.07,2.5-7.61a10.73,10.73,0,0,0,.28-1.52C291.54,22.63,291.77,22.14,292,21.65Z" transform="translate(-0.37 -0.27)"/><path class="cls-27" d="M204.67,23.61c-.67.38-1.33.77-2,1.13a1,1,0,0,1-.48,0c-6.33-.4-12.4,1.17-18.5,2.49-.7.14-1.4.23-2.11.35l-.2-.39c3.05-.72,6.08-1.67,9.17-2.11C195.23,24.43,200,24.09,204.67,23.61Z" transform="translate(-0.37 -0.27)"/><path class="cls-24" d="M374.19,113.6c2.86.38,5.71.82,8.58,1.11,1.08.12,1.22.65,1.14,1.51-2.14,0-4.28,0-6.42,0a23.37,23.37,0,0,1-3-.47l0-.3,1.11-.4h-1.5Z" transform="translate(-0.37 -0.27)"/><path class="cls-24" d="M385.32,111.89c-1.9-.38-3.83-.65-5.69-1.17a37.23,37.23,0,0,1-4.1-1.69l.56-1.19c1.94.59,3.89,1.13,5.81,1.78,1.32.44,2.6,1,3.91,1.55Z" transform="translate(-0.37 -0.27)"/><path class="cls-16" d="M147.58,56.48c-1,0-1.67-.45-1.49-1.62L154,52.38l.73,1-2.67,1.2C150.57,55.24,149.08,55.86,147.58,56.48Z" transform="translate(-0.37 -0.27)"/><path class="cls-17" d="M312.49,81.88a2.39,2.39,0,0,1,.85-.44,23,23,0,0,1,2.75,0c1.29,0,1.92.93,1.81,2.41s-.72,1.8-2.1,1.74A5.43,5.43,0,0,0,314,86c-.81.29-1.41.21-1.67-.72Zm2.56,2.74c.83-.05,1.74.12,1.72-1.12,0-1-.49-1.37-1.78-1.36-.85,0-1.63.13-1.62,1.24S314.24,84.61,315.05,84.62Z" transform="translate(-0.37 -0.27)"/><path class="cls-26" d="M319.74,85.51c-1.3-1.72-1.18-3.41-.66-5.47,1.05,1.63,2.59,1.27,4,1.36,1.24.08,2.45,2.43,1.79,3.44-.16.23-.7.46-.89.36a1.29,1.29,0,0,1-.56-.9c-.06-.92-.24-1.6-1.34-1.79-1.35-.23-1.8,0-2.09,1.38C319.92,84.36,319.86,84.83,319.74,85.51Z" transform="translate(-0.37 -0.27)"/><path class="cls-15" d="M85.74,105.93c.36-2.38.64-4.43,1-6.47.06-.33.59-.57.9-.85.25.37.76.76.72,1.09-.22,2.06-.52,4.12-.91,6.15a1.36,1.36,0,0,1-1,.85C86.22,106.72,85.9,106.11,85.74,105.93Z" transform="translate(-0.37 -0.27)"/><path class="cls-13" d="M420.64,108.53c1.86,2,2.14,4.73,3.3,7.06.12.24-.24.72-.37,1.09-.47-.19-1.11-.26-1.37-.61s-.19-1.08-.37-1.6-.55-1.25-.83-1.88c-.43-1-.88-2-1.27-3a8.84,8.84,0,0,1-.3-1.28l.8,0,.43.2Z" transform="translate(-0.37 -0.27)"/><path class="cls-24" d="M376.91,105.88a17.59,17.59,0,0,1,8,2.59c.31.17.44.66.65,1a4.73,4.73,0,0,1-.93-.09c-2.25-.66-4.51-1.3-6.73-2-.47-.16-.78-.77-1.17-1.17Z" transform="translate(-0.37 -0.27)"/><path class="cls-24" d="M380,100.6c1.43.67,2.87,1.32,4.28,2s2.71,1.46,4.35,2.35c-3.25.33-5.51-1.26-7.86-2.59-.48-.28-1-.54-1.45-.81Z" transform="translate(-0.37 -0.27)"/><path class="cls-18" d="M330.88,77.1c.85.11,1.7.3,2.55.33,2.18.07,4.36,0,6.54.11a2.57,2.57,0,0,0,2.4-1c.16,1.22-.56,1.65-1.6,1.73-2.33.18-4.65.33-7,.48A2.48,2.48,0,0,1,330.88,77.1Z" transform="translate(-0.37 -0.27)"/><path class="cls-15" d="M92.57,85.71a.86.86,0,0,0,.07-.1c.31-.52-.18-1.61,1-1.52a14.61,14.61,0,0,1,2.13.5,7.11,7.11,0,0,0,.79.1c.66.28,1.78.09,1.52,1.33a1.9,1.9,0,0,1-2.46,1.1C94.55,86.73,93.57,86.19,92.57,85.71Z" transform="translate(-0.37 -0.27)"/><path class="cls-17" d="M376.76,106.16c.39.4.7,1,1.17,1.17,2.22.75,4.48,1.39,6.73,2a4.73,4.73,0,0,0,.93.09l.93,0c-.24.55-.47,1.11-.71,1.67-1.31-.52-2.59-1.11-3.91-1.55-1.92-.65-3.87-1.19-5.81-1.78Z" transform="translate(-0.37 -0.27)"/><path class="cls-5" d="M368.79,77.1a5.58,5.58,0,0,1,1.42-.42c2.79,0,5.57,0,8.36,0,.34,0,.67.33,1,.5a3.18,3.18,0,0,1-1,.37c-2.83,0-5.65,0-8.48,0a10.88,10.88,0,0,1-1.26-.17Z" transform="translate(-0.37 -0.27)"/><path class="cls-22" d="M108.59,114.8l.63-.34c1.33-.06,2.66-.19,4-.14.49,0,1,.47,1.43.72l.07,1.82,0,0,0,.06h-.35l-1.58-2.26-1,2.6c-.26-.65-.37-1-.56-1.38s-.38-.57-.59-.59a1,1,0,0,0-.74.45,9.24,9.24,0,0,0-.65,1.25l-.4-.08Z" transform="translate(-0.37 -0.27)"/><path class="cls-11" d="M400.19,117.27c-1.39,0-2.78.11-4.18.14-.62,0-1.11-.18-1.08-1s.57-.74,1.1-.74h4.43Z" transform="translate(-0.37 -0.27)"/><path class="cls-22" d="M81.3,94.72l0-.57,0,0c.25-.1.64-.14.73-.32.81-1.76,2.61-2.42,4-3.56.19-.15.59-.06.89-.08A5.72,5.72,0,0,0,86,91c-.25.35-.63.87-.53,1.18.38,1.21-.37,1.43-1.23,1.66Z" transform="translate(-0.37 -0.27)"/><path class="cls-26" d="M387.82,116l.89,0c.41.07.82.16,1.23.22,1.1.16,1.32.53,1,1.66-.77-1-1.62-.81-2.52.1l2.49.14c-1,.93-2,1-3.6.22C387.47,117.58,387.64,116.79,387.82,116Z" transform="translate(-0.37 -0.27)"/><path class="cls-3" d="M403.15,75.63l.79.06,1.13,1.66a23.89,23.89,0,0,1-3,.49c-.25,0-.6-.64-.75-1,0-.1.53-.45.85-.65S402.82,75.8,403.15,75.63Z" transform="translate(-0.37 -0.27)"/><path class="cls-5" d="M233.19,36.8c1.16-.86,2.38-.56,3.72-.21-.11.95-.21,1.87-.31,2.79L236.53,38l-3.59-.16Z" transform="translate(-0.37 -0.27)"/><path class="cls-16" d="M85.65,114.5l-.26,2.12H82.77C82.77,114.55,84.06,113.66,85.65,114.5Z" transform="translate(-0.37 -0.27)"/><path class="cls-6" d="M116.73,115.14c.67-1,1.6-1.14,2.74-.43.79.5.82,1.07,0,2.45l-1.53-1.76-.7,1Z" transform="translate(-0.37 -0.27)"/><path class="cls-25" d="M89.2,113.55l-.45,3.1c-.53-.32-1.42-.56-1.52-1a7.12,7.12,0,0,1,.25-2.39Z" transform="translate(-0.37 -0.27)"/><path class="cls-22" d="M247.36,36.8v.61l-5.53.29-.72-.9Z" transform="translate(-0.37 -0.27)"/><path class="cls-16" d="M414.63,117.63a8,8,0,0,0,6.43,0l.66,1c-.91.08-1.59.19-2.27.18-1.51,0-3,0-4.51-.14C414,118.62,413.84,118.24,414.63,117.63Z" transform="translate(-0.37 -0.27)"/><path class="cls-16" d="M116.73,115.14l.5,1.29a.91.91,0,0,1-1.3.65,8.34,8.34,0,0,0-1.23-.23c0-.6,0-1.2-.07-1.81l1.15-1.16Z" transform="translate(-0.37 -0.27)"/><path class="cls-28" d="M208.49,46.9a14,14,0,0,1-2.3.28,1.14,1.14,0,0,1-.78-.8,1.12,1.12,0,0,1,.74-.82,14.1,14.1,0,0,1,2.33.15Z" transform="translate(-0.37 -0.27)"/><path class="cls-25" d="M181.38,27.22l.2.39A8.86,8.86,0,0,1,176,28.77c1.36-.45,2.7-.91,4.06-1.33A9,9,0,0,1,181.38,27.22Z" transform="translate(-0.37 -0.27)"/><path class="cls-6" d="M344.08,76.38c.15,0,.36.14.45.08,1.07-.65,2-.23,2.82.42a8.81,8.81,0,0,1-1.7.87C344.46,78.07,344.08,77.7,344.08,76.38Z" transform="translate(-0.37 -0.27)"/><path class="cls-19" d="M312.49,81.88l-.18,3.38-.61-1.07-.67.38c-.07-.82-.14-1.64-.22-2.47l1,.89Z" transform="translate(-0.37 -0.27)"/><path class="cls-5" d="M380.64,74.78c-2.2,1.14-3.22,1.15-3.66,0Z" transform="translate(-0.37 -0.27)"/><path class="cls-15" d="M76.26,99l-1-.33c1.46-.41,1.84-2.08,3.45-1.81Z" transform="translate(-0.37 -0.27)"/><path class="cls-6" d="M154.73,53.4l-.73-1c.82-.07,1.75-1.17,2.4.26Z" transform="translate(-0.37 -0.27)"/><path class="cls-22" d="M86.92,90.15c0-.18-.06-.46,0-.54.81-.66,1.65-1.29,2.5-1.9.08,0,.32.14.48.21Z" transform="translate(-0.37 -0.27)"/><path class="cls-1" d="M67.6,120.3c-.19.16-.37.45-.56.45a29.22,29.22,0,0,1-3,0c-.19,0-.37-.29-.56-.45Z" transform="translate(-0.37 -0.27)"/><path class="cls-23" d="M390.89,118.15,388.4,118c.9-.91,1.75-1.1,2.52-.1A1,1,0,0,1,390.89,118.15Z" transform="translate(-0.37 -0.27)"/><path class="cls-15" d="M78.67,96.82c0-1.28,1-1.51,1.89-2l0,.29Z" transform="translate(-0.37 -0.27)"/><path class="cls-27" d="M433.58,101.83l1.52-.18,0,0c-.12.24-.24.48-.35.72l-1.1-.38C433.61,102,433.59,101.89,433.58,101.83Z" transform="translate(-0.37 -0.27)"/><path class="cls-1" d="M69.28,120.3c-.4.77-.8.76-1.2,0Z" transform="translate(-0.37 -0.27)"/><path class="cls-16" d="M420.66,108.54l-.43-.2Z" transform="translate(-0.37 -0.27)"/><path class="cls-22" d="M80.58,95.15l0-.29h.51Z" transform="translate(-0.37 -0.27)"/><path class="cls-19" d="M310.71,85c.09-.14.19-.27.29-.4C310.9,84.75,310.8,84.88,310.71,85Z" transform="translate(-0.37 -0.27)"/><path class="cls-19" d="M310.77,82c-.08-.12-.16-.24-.23-.37C310.61,81.79,310.69,81.91,310.77,82Z" transform="translate(-0.37 -0.27)"/><path class="cls-16" d="M114.37,117h.35l-.09.23v0Z" transform="translate(-0.37 -0.27)"/><path class="cls-15" d="M120.16,69.17l.31-.3Z" transform="translate(-0.37 -0.27)"/><path class="cls-16" d="M114.63,117.19l.13.06s-.06,0-.06,0a.33.33,0,0,1-.06-.1Z" transform="translate(-0.37 -0.27)"/><path class="cls-3" d="M454.79,140.71c.16.08.44.13.48.26,1,2.69,1.05,6.1-2.16,7.81a8.8,8.8,0,0,1-5.3.9,17.68,17.68,0,0,1-6.51-1.78,10.58,10.58,0,0,1-4.44-4.52c-.73-1.43-.65-2.41.6-3.24a11.94,11.94,0,0,0,2.87-2.8c.1,2.21.54,2.66,2.8,2.82.71.05,1.43.05,2.15.08,1.63.09,3.26.19,4.9.27S453.25,140.64,454.79,140.71Z" transform="translate(-0.37 -0.27)"/><path class="cls-4" d="M482.32,139.74a3,3,0,0,0-.72,3.86,7.93,7.93,0,0,1,.47,2.67,2.53,2.53,0,0,1-2.2,2.79,13.88,13.88,0,0,1-14.51-5.84c-1-1.37-.69-2.44.65-3.51a8.61,8.61,0,0,0,1.19-1.41c2.18-.74,2.33,1.6,3.2,2.29.48-1.35.92-2.61,1.37-3.86l1.12.11c.05.63.05,1.28.15,1.9.19,1.35.71,1.6,2,1,.21-.1.41-.25.62-.35a1.29,1.29,0,0,1,1.68.32c.42.42,1.23.45,1.87.65L481,140Z" transform="translate(-0.37 -0.27)"/><path class="cls-6" d="M454.79,140.71c-1.54-.07-3.08-.12-4.61-.2s-3.27-.18-4.9-.27c-.72,0-1.44,0-2.15-.08-2.26-.16-2.7-.61-2.8-2.82.35-.26.69-.72,1.06-.74,2.8-.16,5.61-.22,8.42-.32.36,1.88-1.68.12-1.86,1.31l2.32.58-.06.25-2.16.52,0,.3,3,.28c.11-1.05.2-1.85.28-2.65A6.44,6.44,0,0,0,454.79,140.71Z" transform="translate(-0.37 -0.27)"/><path class="cls-22" d="M452.05,117.17c1.79-.29,3.57-.65,5.36-.87,1.58-.19,3.17-.23,4.75-.34.88.07,2,1,1.88,1.86a1.44,1.44,0,0,1-1,1c-3.14.07-6.28.06-9.42,0C452.63,118.82,452.26,118,452.05,117.17Z" transform="translate(-0.37 -0.27)"/><path class="cls-22" d="M444.1,115.36a7.66,7.66,0,0,1-1.51.45c-.71.07-1.43,0-2.15,0-1.36,0-1.8.47-1.77,1.81,0,.37,0,.75,0,1.12l-.37.18c-.28-.35-.73-.65-.82-1-.37-1.67-.68-3.36-.93-5.06,0-.26.39-.84.6-.84,2.26,0,4.51.09,6.76.15l0,.57c-.85.13-1.69.32-2.54.4s-1.6,0-2.39.07c-.28,0-.52.39-.77.59.23.28.43.74.71.79a15,15,0,0,0,2,.09c1,.06,2,.16,3,.24Z" transform="translate(-0.37 -0.27)"/><path class="cls-15" d="M479.18,140.37c-.64-.2-1.45-.23-1.87-.65a1.29,1.29,0,0,0-1.68-.32c-.21.1-.41.25-.62.35-1.26.59-1.78.34-2-1-.1-.62-.1-1.27-.15-1.9l6.08.33Zm-2-2.27c-1.37-1-2.08-1-3.08,0Z" transform="translate(-0.37 -0.27)"/><path class="cls-27" d="M436.61,102.53a53.76,53.76,0,0,1,5.32,4c2.16,2.06,4.07,4.38,6.08,6.59.1.31.19.62.29.93l-1.08-.15a40.76,40.76,0,0,0-9.32-9.58l-.47-.32-.25-.15-.83-.56-.37-.18Z" transform="translate(-0.37 -0.27)"/><path class="cls-16" d="M479.18,140.37l-.21-3.2c1.2-.77,3.77-.33,4.54.78.5.73,0,1.45-1.19,1.79L481,140Z" transform="translate(-0.37 -0.27)"/><path class="cls-5" d="M447.22,113.88l1.08.15c.67,1.18,1.38,2.35,2,3.56a1.4,1.4,0,0,1,.05,1.18c-.52.84-3.15.87-3.71,0a1.7,1.7,0,0,1-.21-1.21c.05-.21.54-.41.86-.46,1.19-.19,1.46-.71.86-1.75C447.85,114.89,447.53,114.39,447.22,113.88Z" transform="translate(-0.37 -0.27)"/><path class="cls-15" d="M471.77,136.73c-.45,1.25-.89,2.51-1.37,3.86-.87-.69-1-3-3.2-2.29-.42-.6-.29-.91.46-1C469,137.13,470.4,136.92,471.77,136.73Z" transform="translate(-0.37 -0.27)"/><path class="cls-25" d="M451.36,136.87c-.08.8-.17,1.6-.28,2.65l-3-.28,0-.3,2.16-.52.06-.25-2.32-.58c.18-1.19,2.22.57,1.86-1.31C450.45,136.17,451.15,135.87,451.36,136.87Z" transform="translate(-0.37 -0.27)"/><path class="cls-5" d="M436.61,102.53l-.63.56-1.26-.69c.11-.24.23-.48.35-.72Z" transform="translate(-0.37 -0.27)"/><path class="cls-5" d="M436.35,103.27l.83.56Z" transform="translate(-0.37 -0.27)"/><path class="cls-5" d="M437.43,104l.47.32Z" transform="translate(-0.37 -0.27)"/><path class="cls-28" d="M217.6,133c4.19,0,8.39,0,12.59,0,11.63-.06,23.25-.2,34.88-.2,4.38,0,8.76.29,13.14.46,1.67.06,3.33.2,5,.22,8.43.1,16.86.13,25.29.27,4.74.07,9.47.31,14.21.46,2.67.09,5.34.21,8,.23,9.91.1,19.81.24,29.72.23,13,0,26-.13,39-.23,3.67,0,7.34-.14,11-.24,2.35-.06,4.7-.24,7.05-.21a10.65,10.65,0,0,1,8.56,4.29,45.43,45.43,0,0,1,3.3,5.35,4.44,4.44,0,0,1-.17,4.35,6.81,6.81,0,0,0-.35,1.59,33.46,33.46,0,0,1-5.38,2.78,19.72,19.72,0,0,1-6,.78q-30.8,0-61.59-.22c-2.34,0-4.68-.41-7-.43-1.89,0-3.79.28-5.69.44a8.55,8.55,0,0,0-1.9-.43c-1.27,0-2.54.18-3.81.19-5.28,0-10.55,0-15.83,0-2.69,0-5.39-.2-8.08-.21-1.91,0-3.82.22-5.73.2-6.26,0-12.53-.17-18.8-.22-14.23-.1-28.45-.15-42.68-.25q-11.81-.08-23.6-.24c-5.15-.06-10.3-.2-15.45-.22q-32.61-.15-65.23-.26c-3.75,0-7.5-.15-11.24-.24-3.11-.07-6.22-.17-9.33-.23-2,0-3.89,0-5.84,0-3.56,0-7.12,0-10.67,0a8,8,0,0,1-7.82-5.87,7.26,7.26,0,0,1,.08-4c1.06-3,2.47-5.84,5.19-7.7a10.87,10.87,0,0,1,2.66-.93,4.36,4.36,0,0,0,1.21.42c3,.07,6,.07,9,.12.71,0,1.41.17,2.12.17,10.87,0,21.74,0,32.61,0,4.74,0,9.48.18,14.23.22q15.81.15,31.61.23c3.47,0,6.94-.11,10.4-.23s6.76-.32,10.13-.48Z" transform="translate(-0.37 -0.27)"/><path class="cls-11" d="M137.44,153.66l3.29-.31,0,.32-6.84.31v-.32h3.54Z" transform="translate(-0.37 -0.27)"/><path class="cls-11" d="M130.24,153.18a22.17,22.17,0,0,1-2.42.21,6.39,6.39,0,0,1-2.1-.45h2.12l1.68.24Z" transform="translate(-0.37 -0.27)"/><path class="cls-14" d="M129.52,153.18l-1.68-.24C128.45,152.63,129.06,152.36,129.52,153.18Z" transform="translate(-0.37 -0.27)"/><path class="cls-11" d="M37.6,142.62a13.12,13.12,0,0,1,2.64-9.57c3.38-4.18,7.64-6.84,13.19-6.47,4.16.29,9,3.15,9.9,7.86a20.94,20.94,0,0,1-.08,4.74,9.63,9.63,0,0,1-.21,1.29c-1.69,2.72-3.52,5.4-6.4,6.92-4.63,2.46-9.5,3.5-14.17.22C40.6,146.29,39.21,144.3,37.6,142.62Zm14.63-7.38c-.09-.16-.17-.46-.26-.47a34,34,0,0,0-4-.17c-2.74.14-4.7,2-6.76,3.48a3.86,3.86,0,0,0-1.13,2.48c-.23,1.79,1.17,2.74,2.36,3.74.61,1.52,2,2,3.39,2.34a13.23,13.23,0,0,0,10.41-1.88,9.94,9.94,0,0,0,4.71-5.5c.4-1.33-.22-2.4-1.6-2.37a13.4,13.4,0,0,1-5.89-1.23Z" transform="translate(-0.37 -0.27)"/><path class="cls-1" d="M34.24,132.06c1.12,3.81,0,7.33-1.44,10.8-2.6,2.13-5,4.57-8.28,5.73a14.13,14.13,0,0,1-5.39.76,11.31,11.31,0,0,1-8.52-4.46c-.8-1.08-.85-2.77-1.07-4.2-.5-3.19,1.12-5.74,2.81-8.15,3.16-4.51,7.75-6.25,13.08-5.95a10.49,10.49,0,0,1,8,4.61C33.68,131.51,34,131.77,34.24,132.06ZM12.4,138.3c0,1.07,0,2.15,0,3.22.08,2.79,1.81,4.77,4.31,4.94,1.42.08,2.83.23,4.25.23,4.17,0,7.28-2.11,9.94-5.08a6.88,6.88,0,0,0,1.63-4.24,10.93,10.93,0,0,0,.28-1.94,6.94,6.94,0,0,0-3.58-6,9.22,9.22,0,0,0-4.64-1.56,13,13,0,0,0-8.6,3.63c-1.21,1.11-2.25,2.41-3.36,3.62C10.82,136.4,10.77,137.15,12.4,138.3Z" transform="translate(-0.37 -0.27)"/><path class="cls-12" d="M89,141.67a9,9,0,0,0,1.38-1.8,6.1,6.1,0,0,0,.17-4.41,12.8,12.8,0,0,0-3.28-5.73,2.52,2.52,0,0,1-.67-1.26,9,9,0,0,1,4.25,3.29c1.55,1.92,1.49,4.27,1.5,6.57,0,.51-.23,1.22.71,1.17-1.72,2.24-3.43,4.5-5.18,6.72a12.41,12.41,0,0,1-1.3,1.21,18.19,18.19,0,0,1-13.49,1.44c-3.7-1.07-6.72-5.09-6.44-8.88,0-3.07,1.62-5.44,3.33-7.75a9.86,9.86,0,0,1,5.11-3.91l1.75-.49.11.27c-1.26.94-2.5,1.89-3.78,2.81a10.89,10.89,0,0,0-4.81,7.88c-.2,1.8,1,4.59,2.37,5.27a11.21,11.21,0,0,0,1.61,1.48,11.37,11.37,0,0,0,9.1,1.32A11.63,11.63,0,0,0,89,141.67Z" transform="translate(-0.37 -0.27)"/><path class="cls-16" d="M137.67,127.53a10.59,10.59,0,0,1,6.2-.58c1.16.18,2.37,0,3.66.3l-2.44.81,2.4.48,0,.43-2.31.59,0,.15,2.2.38a8.91,8.91,0,0,1-5.68.89c-1.44-.18-2.85-.56-4.28-.84Zm5.77,1.29c-1-1-2.09-1.53-3.39-1a1.5,1.5,0,0,0-.85,1,1.44,1.44,0,0,0,.92,1A3.25,3.25,0,0,0,143.44,128.82Z" transform="translate(-0.37 -0.27)"/><path class="cls-22" d="M98.32,130.14c-.91-.06-1.09-.63-1-1.41.34-2.32.68-2.61,3-2.45a11.61,11.61,0,0,1,1.53.25c1.85.39,1.9.48,1.62,2.4-.82.63-.08.81.33.92.85.22,1.73.33,2.6.48a6.17,6.17,0,0,1-1.88.21,3.12,3.12,0,0,1-1.89-.95,1.48,1.48,0,0,0-2.11-.66C99.8,129.27,99.07,129.73,98.32,130.14Zm.61-2.87,0,.66,2.11-.19,0-.61Z" transform="translate(-0.37 -0.27)"/><path class="cls-22" d="M126.9,130.22c-1.25.2-2.5.44-3.76.57-.85.08-1.93,0-2-1a4.09,4.09,0,0,1,.6-2.75c.86-1.15,3.9-.53,4.7.91a13.65,13.65,0,0,0-1.65-.5,4.16,4.16,0,0,0-1.64-.1,1.15,1.15,0,0,0-1,1.52,2,2,0,0,0,1.08.95,2.72,2.72,0,0,0,1.17,0l2.5-.14Z" transform="translate(-0.37 -0.27)"/><path class="cls-22" d="M137.67,127.53l-.23,2.61c-.42.86-.95.86-1.56.18l-1.73-2-1.09,2.23-.46,0a10.59,10.59,0,0,1-.07-2.57c.26-1.26,1.44-1.48,2.31-.55.48.51.95,1,1.31,1.43C137.15,128.74,136.13,126.9,137.67,127.53Z" transform="translate(-0.37 -0.27)"/><path class="cls-6" d="M126.9,130.22l0-.55c.43-.67.82-1.36,1.29-2,.89-1.19,2-1.12,2.75.14.1.17.19.35.28.53.32.71.64,1.43.85,1.88Z" transform="translate(-0.37 -0.27)"/><path class="cls-22" d="M114,127.2c.28-.08.68-.32.83-.21,1.82,1.28,1.81,1.29,3.66.15a5.86,5.86,0,0,1,.72-.29l-.38,3.52c-.86-.53-1.6-1.32-2.36-1.35s-1.55.71-2.33,1.1C114.11,129.15,114.07,128.17,114,127.2Z" transform="translate(-0.37 -0.27)"/><path class="cls-15" d="M108.89,127c1.39-.78,2.84-.28,4.28-.18l.06.4a15.22,15.22,0,0,1-1.92-.13,1.43,1.43,0,0,0-1.82.82c.74.1,1.28.22,1.84.25,1.35.07,1.61.32,1.64,1.71a13.06,13.06,0,0,1-1.87.67,2.16,2.16,0,0,1-2.68-1.14c1.37.24,2.8.83,4.25-.69h-3.76a.37.37,0,0,0-.2-.07c0-.17,0-.34,0-.51C108.8,127.79,108.84,127.41,108.89,127Z" transform="translate(-0.37 -0.27)"/><path class="cls-5" d="M108.89,127c0,.37-.09.75-.14,1.13-.29.26-.72.46-.84.79-.28.73-.5,1.41-1.46,1.37s-1.75-.26-2.6-.48c-.41-.11-1.15-.29-.33-.92,2,1.07,2.87.72,3.22-1.39.14-.87.49-1.23,1.36-.76A4.87,4.87,0,0,0,108.89,127Z" transform="translate(-0.37 -0.27)"/><path class="cls-16" d="M148.74,127.09c.2.25.54.48.58.75.27,2,.25,2,2.2,2.16.13,0,.24.25.36.38a10.59,10.59,0,0,1-1.1.6c-.15.06-.37-.07-.57-.11-.62-.13-1.74-.18-1.77-.39C148.27,129.36,147.79,128.13,148.74,127.09Z" transform="translate(-0.37 -0.27)"/><path class="cls-25" d="M113,129.91c0-1.39-.29-1.64-1.64-1.71-.56,0-1.1-.15-1.84-.25a1.43,1.43,0,0,1,1.82-.82,15.22,15.22,0,0,0,1.92.13l.79-.06c0,1,.09,2,.14,2.92Z" transform="translate(-0.37 -0.27)"/><path class="cls-25" d="M108.91,128.75h3.76c-1.45,1.52-2.88.93-4.25.69l.24-.5Z" transform="translate(-0.37 -0.27)"/><path class="cls-11" d="M116.11,152.26h5.43v.22h-5.43Z" transform="translate(-0.37 -0.27)"/><path class="cls-11" d="M131.26,153.46h1.58v.12h-1.59Z" transform="translate(-0.37 -0.27)"/><path class="cls-11" d="M124,152.75h.74v.12l-.69.06Z" transform="translate(-0.37 -0.27)"/><path class="cls-11" d="M122.53,152.52l.49-.05,0,.14-.49.08Z" transform="translate(-0.37 -0.27)"/><path class="cls-12" d="M93.52,139l.25-.24Z" transform="translate(-0.37 -0.27)"/><path class="cls-12" d="M93.28,139.26l.24-.24Z" transform="translate(-0.37 -0.27)"/><path class="cls-12" d="M93,139.5l.24-.24Z" transform="translate(-0.37 -0.27)"/><path class="cls-5" d="M108.91,128.75l-.25.19,0-.26A.37.37,0,0,1,108.91,128.75Z" transform="translate(-0.37 -0.27)"/><path class="cls-15" d="M53.89,116l.76,0Z" transform="translate(-0.37 -0.27)"/><path class="cls-26" d="M407.66,95.07l-.74-.59c2-.52-.2-1.94.57-2.9.29.54.56,1.07.85,1.58.2.34.44.66.66,1,.22-.32.44-.65.68-1a1.6,1.6,0,0,1,.35-.28c.73,1.6.41,2.14-1.32,2.19C408.36,95.11,408,95.08,407.66,95.07Z" transform="translate(-0.37 -0.27)"/><path class="cls-3" d="M89,141.67a11.63,11.63,0,0,1-7.56,5.2,11.37,11.37,0,0,1-9.1-1.32,11.21,11.21,0,0,1-1.61-1.48c-.33-6,3-8.76,7.91-10.82.2,1.09-.42,1.48-1.35,1.69-.66.15-1.3.41-1.94.61l.06.45c.31.12.64.38.93.35,1.4-.14,1.49.66,1.33,1.7-1,.17-2.09.08-2.81.59a9,9,0,0,0-2.54,2.88,3.26,3.26,0,0,0,1.08,3.53,4.17,4.17,0,0,0,2.6.24c1.37-.39,3.2-3.47,2.75-5.53-.07.16-.15.33-.32.68v-1.15a5.61,5.61,0,0,0,.68-1.11c.52-1.56.92-1.83,2.5-1.76.31,0,.64-.35,1-.53,2,.59,3.92,1.15,5.86,1.79,1.27.43,1.47,1,1.07,2.29C89.3,140.53,89.14,141.1,89,141.67Z" transform="translate(-0.37 -0.27)"/><path class="cls-4" d="M65.8,130.39h-.12c-.6,0-1.54.2-1.72-.09a7.79,7.79,0,0,1-.67-2.33c.79.67,1.47.46,2.23-.13.58-.44,1.35-.63,1.94-1.07.31-.22.4-.73.59-1.11-.37-.14-.79-.47-1.1-.39s-.63.55-.94.85l-1.65,1.53a3,3,0,0,1,1.27-3.9,3.07,3.07,0,0,1,3.86.23c1.09,1.22,1,2.2-.57,4.32l.82.36c0,.57.28,1.28-.61,1.49C67.63,128.71,66.67,128.78,65.8,130.39Z" transform="translate(-0.37 -0.27)"/><path class="cls-22" d="M399.74,131.48c-.71.25-1.42.54-2.14.76-1.66.51-2.46.1-3-1.53-.05-.15,0-.36-.13-.45-.32-.29-.67-.54-1-.81a9.84,9.84,0,0,0-.78,1.05,8.69,8.69,0,0,0-.48,1.17,7,7,0,0,1-.63-1c-.21-.57-.29-1.22-1.13-1.12s-.81.7-.82,1.33a4.09,4.09,0,0,1-.33,1,2,2,0,0,1-.65-2.67c.21-.37,1.13-.52,1.72-.51,3,0,6,.16,9,.25C399.43,129.79,399.59,130.63,399.74,131.48Zm-1.77.1c.55-.64,1-.93,1.09-1.3.13-.73-.46-1-1.07-.87a4.24,4.24,0,0,0-1.13.69Z" transform="translate(-0.37 -0.27)"/><path class="cls-16" d="M69.74,128.65l-.82-.36c1.55-2.12,1.66-3.1.57-4.32a3.07,3.07,0,0,0-3.86-.23,3,3,0,0,0-1.27,3.9L66,126.11c.31-.3.58-.75.94-.85s.73.25,1.1.39c-.19.38-.28.89-.59,1.11-.59.44-1.36.63-1.94,1.07-.76.59-1.44.8-2.23.13-1.21-1.84-1-2.79.79-4.08.52-.37,1-.76,1.57-1.08a3.75,3.75,0,0,1,4.86.72c1.17,1.33,1.13,2.71-.16,4.41C70.16,128.18,70,128.41,69.74,128.65Z" transform="translate(-0.37 -0.27)"/><path class="cls-6" d="M77.65,138.05c.16-1,.07-1.84-1.33-1.7-.29,0-.62-.23-.93-.35l-.06-.45c.64-.2,1.28-.46,1.94-.61.93-.21,1.55-.6,1.35-1.69l1.12-1a6.1,6.1,0,0,1,.17,1c0,1.57.11,1.71,1.7,1.94.34,0,.62.44.93.68-.31.18-.64.54-1,.53-1.58-.07-2,.2-2.5,1.76a5.61,5.61,0,0,1-.68,1.11Z" transform="translate(-0.37 -0.27)"/><path class="cls-16" d="M416,131.81a9.32,9.32,0,0,0-.62-1.57c-.19-.32-.67-.77-.89-.71a1.7,1.7,0,0,0-.82.92,6.78,6.78,0,0,0-.28,1.57c-.36-.61-.55-.89-.69-1.19-.74-1.61-.43-2.12,1.31-2.14,1,0,2.07,0,3.11,0,2.05,0,2.53.65,2.11,3.22a10.25,10.25,0,0,1-.78-1.27c-.24-.54-.33-1.2-1.17-1.08s-.65.75-.67,1.3a5.35,5.35,0,0,1-.17.87Z" transform="translate(-0.37 -0.27)"/><path class="cls-5" d="M399.74,131.48c-.15-.85-.31-1.69-.46-2.53.94-1.16,1.47-1.3,2.78-.73.33.14.65.32,1,.44,1.93.72,2,.85,1.38,3.14a5.84,5.84,0,0,1-.77-1.31c-.2-.66-.47-1.11-1.22-1s-.81.63-.8,1.23C401.69,132.55,400.46,131.41,399.74,131.48Zm.44-1.37H400l0,.51h.1Z" transform="translate(-0.37 -0.27)"/><path class="cls-5" d="M411.11,128.83c-1.42,1.39.08,2,.58,2.88a20.51,20.51,0,0,1-3.06-.2,1.52,1.52,0,0,1-1-1,23.93,23.93,0,0,1-.34-3.25C408.49,128.47,409.41,129.53,411.11,128.83Z" transform="translate(-0.37 -0.27)"/><path class="cls-16" d="M423.77,128.2c.7.25,1.4.51,2.11.75,1.47.5,1.72,1,1.29,2.86a6.57,6.57,0,0,0-.71-1.35,8.24,8.24,0,0,0-1.27-1c-.31.43-.66.84-.93,1.3a2.65,2.65,0,0,0-.21.85l-.44.07-.63-2.26C423.2,129,422.72,128.11,423.77,128.2Z" transform="translate(-0.37 -0.27)"/><path class="cls-14" d="M210.8,132.27H186.72v-.12h24.13Z" transform="translate(-0.37 -0.27)"/><path class="cls-5" d="M65.8,130.39c.87-1.61,1.83-1.68,3.33-.25A2.6,2.6,0,0,1,65.8,130.39Z" transform="translate(-0.37 -0.27)"/><path class="cls-5" d="M422,129.39a13.36,13.36,0,0,1-.88,1.68,4.69,4.69,0,0,1-1,.85l-.38-.29,2.08-3.92C421.91,128.27,422,128.83,422,129.39Z" transform="translate(-0.37 -0.27)"/><path class="cls-16" d="M95.51,129.42A1.06,1.06,0,0,1,95,131a13.42,13.42,0,0,1-1.49.69,2.13,2.13,0,0,1-.85-.09c.11-.33.13-.83.36-1C93.78,130.19,94.66,129.83,95.51,129.42Z" transform="translate(-0.37 -0.27)"/><path class="cls-27" d="M432.88,134.08l-3.22-1.69.16-.31A2.8,2.8,0,0,1,432.88,134.08Z" transform="translate(-0.37 -0.27)"/><path class="cls-14" d="M217.6,133h-1.2c-.5-.82-1.27-.74-2.07-.63-.61.08-1.22.12-1.84.18l0-.39,5-.29Z" transform="translate(-0.37 -0.27)"/><path class="cls-3" d="M422,129.39c-.07-.56-.13-1.12-.19-1.68,1-.8,1.62-.65,1.92.49-1-.09-.57.8-.79,1.24Z" transform="translate(-0.37 -0.27)"/><path class="cls-5" d="M76,76.69c.83-.93,1.45-2.14,2.91-2.23C78.24,75.65,77.49,76.67,76,76.69Z" transform="translate(-0.37 -0.27)"/><path class="cls-15" d="M119.4,67.65c-.16.18-.33.35-.49.52C119.07,68,119.24,67.83,119.4,67.65Z" transform="translate(-0.37 -0.27)"/><path class="cls-17" d="M306.37,106.86q-9.67,0-19.34,0c-13.08,0-26.16,0-39.23,0q-25.92,0-51.84,0c-1.43,0-2.87-.1-4.3-.22-.28,0-.54-.37-.81-.57l.18-.4h1.28l32.52,0,50,.07c3,0,6,.12,9,.18q10.81.22,21.64.45a5,5,0,0,1,1,.23Z" transform="translate(-0.37 -0.27)"/><path class="cls-24" d="M341.45,75.18c-2.84-.08-5.69-.14-8.53-.25a8.1,8.1,0,0,1-1.5-.34c.11-.74.18-1.5.33-2.23.36-1.77.86-2,2.57-1.65s3.35.73,5,1C342,72.1,342.37,72.69,341.45,75.18Z" transform="translate(-0.37 -0.27)"/><path class="cls-26" d="M296.66,23.46c-.21.8-.33,1.43-.54,2-1.34,3.88-2.68,7.76-4.09,11.61-.14.38-.77.59-1.17.87-.08-.43-.33-.92-.2-1.29,1.54-4.44,3.13-8.87,4.74-13.28.11-.3.5-.5.76-.75Z" transform="translate(-0.37 -0.27)"/><path class="cls-5" d="M233,36.57l.24.22Z" transform="translate(-0.37 -0.27)"/><path class="cls-17" d="M389.65,101.6c-.07.15-.12.43-.21.44-1.44.22-4.07-1.53-4.46-3,0,0,.09-.11.15-.17Q387.38,100.27,389.65,101.6Z" transform="translate(-0.37 -0.27)"/><path class="cls-23" d="M394.49,91l-.07.1.05-.12Z" transform="translate(-0.37 -0.27)"/><path class="cls-7" d="M179.24,52.33v1.31c-1.25-.06-2.45-.1-3.64-.2-.09,0-.27-.47-.19-.59a1.31,1.31,0,0,1,.68-.49,3.66,3.66,0,0,1,.94,0Z" transform="translate(-0.37 -0.27)"/><path class="cls-22" d="M81.27,94.15,81.18,94l.11.09Z" transform="translate(-0.37 -0.27)"/><path class="cls-2" d="M273.66,47.28a1.18,1.18,0,0,1-1.41,1.23c-1.38,0-2.75,0-4.13,0-.77,0-1.55-.05-1.57-1.16s.64-1.24,1.49-1.23c1.44,0,2.87,0,4.3,0C273.26,46.11,273.66,46.48,273.66,47.28Z" transform="translate(-0.37 -0.27)"/><path class="cls-2" d="M271,45.05c-1,0-2.06,0-3.1,0-.74,0-1.37-.23-1.37-1.14s.61-1.12,1.37-1.13c1.3,0,2.61,0,3.91,0,.91,0,1.49.25,1.5,1.25s-.67,1.15-1.47,1.12l-.84,0Z" transform="translate(-0.37 -0.27)"/><path class="cls-2" d="M210.16,50.78h-3.83c-.83,0-1.42-.32-1.41-1.24s.64-1.22,1.45-1.22c1.23,0,2.46,0,3.69,0,.79,0,1.57-.11,1.62,1S211.3,50.84,210.16,50.78Z" transform="translate(-0.37 -0.27)"/><path class="cls-2" d="M302,46.88c1.11,0,2.22,0,3.33,0s1.67.53,1.58,1.47-.86,1.15-1.74,1.11c-1.18,0-2.37,0-3.55,0-.85,0-1.65,0-1.66-1.18s.42-1.46,1.68-1.46H302Z" transform="translate(-0.37 -0.27)"/><path class="cls-14" d="M416.3,108.84c2-.13,2.81.48,2.64,2,0,.27-.13.72-.27.74a8.84,8.84,0,0,1-2.86.38,2.32,2.32,0,0,1-1.41-1.34c-.53-1.33-.09-1.84,1.31-1.82Z" transform="translate(-0.37 -0.27)"/><path class="cls-7" d="M76.88,115.43l-2.24.26c-1.31.16-2.06-.32-2.15-1.63-.2-2.85.5-4.13,3.21-4.13,1.11,0,2.22-.1,3.33,0a1.74,1.74,0,0,1,1.18.62c.51.71.26,3.76-.44,4.21a13.45,13.45,0,0,1-2.79,1Z" transform="translate(-0.37 -0.27)"/><path class="cls-5" d="M124.25,79.08h4.56v.12h-4.56Z" transform="translate(-0.37 -0.27)"/><path class="cls-2" d="M148,63.4,152.23,61c.84,2.32,0,3.41-2.2,3.12-.66-.09-1.31-.22-2-.33Z" transform="translate(-0.37 -0.27)"/><path class="cls-7" d="M100.78,116.27c-.71,0-1.34.06-1.33-.92s.6-1.36,1.53-1.35c.71,0,1.45.09,1.45,1C102.43,116.08,101.71,116.4,100.78,116.27Z" transform="translate(-0.37 -0.27)"/><path class="cls-23" d="M375.1,111.26a6.19,6.19,0,0,1,1.59-.12c2.29.45,4.58.94,6.85,1.48.32.08.57.49.85.75-.31.15-.65.47-.94.43-2.31-.31-4.62-.64-6.91-1.07-.53-.11-1-.66-1.47-1Zm1.66,1a.75.75,0,0,0-.14-.12.21.21,0,0,0-.11,0v.14Z" transform="translate(-0.37 -0.27)"/><path class="cls-17" d="M407.73,76.51c.79-.12,1.58-.3,2.38-.36,1.83-.12,3.65-.21,5.48-.22.4,0,.8.4,1.2.61-.36.19-.72.53-1.08.54-2.31,0-4.63,0-6.94,0a7.5,7.5,0,0,1-1.06-.14Z" transform="translate(-0.37 -0.27)"/><path class="cls-16" d="M332.83,76.42H340v.12h-7.11Z" transform="translate(-0.37 -0.27)"/><path class="cls-2" d="M95.64,116.45c-.36-.4-1-.78-1-1.22-.08-.78.52-1.18,1.33-1.16s1.38,0,1.37.93S96.78,116.28,95.64,116.45Z" transform="translate(-0.37 -0.27)"/><path class="cls-2" d="M92.36,114.91c0,1.07-.68,1.29-1.46,1.29s-1.28-.23-1.21-1.08.75-1.08,1.53-1.07S92.41,114.2,92.36,114.91Z" transform="translate(-0.37 -0.27)"/><path class="cls-7" d="M315.05,84.62c-.81,0-1.68,0-1.68-1.24s.77-1.23,1.62-1.24c1.29,0,1.76.36,1.78,1.36C316.79,84.74,315.88,84.57,315.05,84.62Z" transform="translate(-0.37 -0.27)"/><path class="cls-25" d="M477.14,138.1h-3.08C475.06,137.11,475.77,137.11,477.14,138.1Z" transform="translate(-0.37 -0.27)"/><path class="cls-3" d="M53.43,135.66a13.4,13.4,0,0,0,5.89,1.23c1.38,0,2,1,1.6,2.37a9.94,9.94,0,0,1-4.71,5.5,13.23,13.23,0,0,1-10.41,1.88c-1.37-.33-2.78-.82-3.39-2.34a10.59,10.59,0,0,0,.23-1.12,7.38,7.38,0,0,1,2.36-5,8.38,8.38,0,0,0,1.28-2.13l6.19.35C53,136.44,53.59,136.52,53.43,135.66Zm-3.35,6c.19-1.71-.88-2.49-2.65-2.62-1.26-.09-3.1,2-3.12,3.42A2.32,2.32,0,0,0,46.79,145,3.06,3.06,0,0,0,50.08,141.66Z" transform="translate(-0.37 -0.27)"/><path class="cls-4" d="M46.28,136.06A8.38,8.38,0,0,1,45,138.19a7.38,7.38,0,0,0-2.36,5,10.59,10.59,0,0,1-.23,1.12c-1.19-1-2.59-2-2.36-3.74a3.86,3.86,0,0,1,1.13-2.48c2.06-1.49,4-3.34,6.76-3.48a34,34,0,0,1,4,.17c.09,0,.17.31.26.47-1.41,0-2.83-.09-4.23,0A5.67,5.67,0,0,0,46.28,136.06Z" transform="translate(-0.37 -0.27)"/><path class="cls-3" d="M32.54,137.37a6.88,6.88,0,0,1-1.63,4.24c-2.66,3-5.77,5.09-9.94,5.08-1.42,0-2.83-.15-4.25-.23-1-1.08-2.11-2.14-1.67-3.83a12.23,12.23,0,0,1,.93-2.54c.58-1.07.79-2-.46-2.66l2.9-.62a3.17,3.17,0,0,0,3.53-.52,3.31,3.31,0,0,0,3.9.7,1.72,1.72,0,0,1,1,.06c1.23.28,2.45.6,3.94,1l-1.24-1.86,1.06-.51Z" transform="translate(-0.37 -0.27)"/><path class="cls-11" d="M32.54,137.37l-1.91-1.71c-2.43-.93-4.87-1.8-7.56-1.49a6.19,6.19,0,0,1-2.06-.09,2.27,2.27,0,0,0-2.85,1.09l-1.26,1.12a6.12,6.12,0,0,1-.47-.69,1.52,1.52,0,0,0-2.33-.81,6.92,6.92,0,0,1-1.46.35c1.11-1.21,2.15-2.51,3.36-3.62a13,13,0,0,1,8.6-3.63,9.22,9.22,0,0,1,4.64,1.56,6.94,6.94,0,0,1,3.58,6A10.93,10.93,0,0,1,32.54,137.37Z" transform="translate(-0.37 -0.27)"/><path class="cls-14" d="M15.52,137.43c1.25.7,1,1.59.46,2.66a12.23,12.23,0,0,0-.93,2.54c-.44,1.69.66,2.75,1.67,3.83-2.5-.17-4.23-2.15-4.31-4.94,0-1.07,0-2.15,0-3.22Z" transform="translate(-0.37 -0.27)"/><path class="cls-16" d="M15.52,137.43l-3.12.87c-1.63-1.15-1.58-1.9.24-3.16a6.92,6.92,0,0,0,1.46-.35,1.52,1.52,0,0,1,2.33.81,6.12,6.12,0,0,0,.47.69l1.26-1.12.26,1.64Z" transform="translate(-0.37 -0.27)"/><path class="cls-14" d="M143.44,128.82a3.25,3.25,0,0,1-3.32,1,1.44,1.44,0,0,1-.92-1,1.5,1.5,0,0,1,.85-1C141.35,127.29,142.42,127.84,143.44,128.82Z" transform="translate(-0.37 -0.27)"/><path class="cls-25" d="M98.93,127.27l2.11-.14,0,.61-2.11.19Z" transform="translate(-0.37 -0.27)"/><path class="cls-25" d="M77.65,138.05l.76,1.24v1.15c.17-.35.25-.52.32-.68.45,2.06-1.38,5.14-2.75,5.53a4.17,4.17,0,0,1-2.6-.24,3.26,3.26,0,0,1-1.08-3.53,9,9,0,0,1,2.54-2.88C75.56,138.13,76.7,138.22,77.65,138.05Z" transform="translate(-0.37 -0.27)"/><path class="cls-3" d="M398,131.58l-1.11-1.48a4.24,4.24,0,0,1,1.13-.69c.61-.13,1.2.14,1.07.87C399,130.65,398.52,130.94,398,131.58Z" transform="translate(-0.37 -0.27)"/><path class="cls-22" d="M400.18,130.11v.51h-.1l0-.51Z" transform="translate(-0.37 -0.27)"/><path class="cls-17" d="M376.76,112.3l-.24,0v-.14a.21.21,0,0,1,.11,0A.75.75,0,0,1,376.76,112.3Z" transform="translate(-0.37 -0.27)"/><path class="cls-25" d="M50.08,141.66A3.06,3.06,0,0,1,46.79,145a2.32,2.32,0,0,1-2.48-2.56c0-1.42,1.86-3.51,3.12-3.42C49.2,139.17,50.27,140,50.08,141.66Z" transform="translate(-0.37 -0.27)"/><path class="cls-6" d="M18.42,136.81l-.26-1.64A2.27,2.27,0,0,1,21,134.08a6.19,6.19,0,0,0,2.06.09c2.69-.31,5.13.56,7.56,1.49l-1.06.51L30.81,138c-1.49-.38-2.71-.7-3.94-1a1.72,1.72,0,0,0-1-.06,3.31,3.31,0,0,1-3.9-.7A3.17,3.17,0,0,1,18.42,136.81Zm1.62-.36,1-1c-.27-.25-.63-.76-.8-.7a4.94,4.94,0,0,0-1.24.84Zm3.36-1.2c.72.84,2.55,1.15,2.91.72.09-.11-.1-.68-.18-.69C25.31,135.23,24.49,135.25,23.4,135.25Z" transform="translate(-0.37 -0.27)"/><path class="cls-27" d="M20,136.45,19,135.6a4.94,4.94,0,0,1,1.24-.84c.17-.06.53.45.8.7Z" transform="translate(-0.37 -0.27)"/><path class="cls-3" d="M23.4,135.25c1.09,0,1.91,0,2.73,0,.08,0,.27.58.18.69C26,136.4,24.12,136.09,23.4,135.25Z" transform="translate(-0.37 -0.27)"/></g></g></svg>